<svg width="36" height="54" viewBox="0 0 36 54" fill="none" xmlns="http://www.w3.org/2000/svg">
<path id="Vector" d="M7.93372 53.3325C-3.78628 26.3325 -0.376289 15.9725 4.55371 12.0325C9.48371 8.09248 13.4572 7.89248 18.9672 11.1725C18.9937 10.5791 19.0572 9.98797 19.1572 9.40248C20.0072 4.63248 23.5472 -0.857516 35.5572 0.112484L35.3972 2.11248C27.2672 1.46248 22.5172 3.82248 21.2572 9.11248C21.0095 10.2147 20.8986 11.3432 20.9272 12.4725C27.2672 17.1525 30.0572 23.5625 28.0472 28.8325C27.9301 29.1862 27.6797 29.4802 27.3491 29.6521C27.0185 29.8239 26.6339 29.8599 26.2772 29.7525C23.8672 29.0825 19.5272 20.8825 18.9972 13.5525C13.9972 10.1625 10.1937 10.0725 5.80371 13.5525C2.21371 16.4225 -2.03629 25.3025 9.80371 52.4925L7.93372 53.3325ZM21.1772 15.2825C22.0472 20.7725 24.9472 26.1425 26.3872 27.5425C27.7272 23.0025 24.7272 18.3925 21.1772 15.2825Z" fill="#FF76B3"/>
</svg>
