<svg width="65" height="49" viewBox="0 0 65 49" fill="none" xmlns="http://www.w3.org/2000/svg">
<path id="Vector" d="M1.19623e-07 38.9686C34.0959 53.7873 47.1786 49.4757 52.1541 43.2423C57.1296 37.0088 55.0333 27.9431 50.8913 20.9763C51.6406 20.9427 52.3871 20.8625 53.1264 20.736C59.1501 19.6613 66.0829 15.1854 64.858 -3.81639e-06L62.3323 0.202305C63.1532 10.4818 60.1729 16.4877 53.4927 18.0808C52.1008 18.394 50.6757 18.5342 49.2496 18.4981C43.3397 10.4818 35.245 6.95417 28.59 9.49561C28.1434 9.6436 27.772 9.96028 27.555 10.3783C27.3381 10.7962 27.2926 11.2825 27.4282 11.7336C28.2743 14.7808 38.6294 20.2682 47.8858 20.9383C52.1667 27.2603 54.6292 36.1111 50.2346 41.6618C46.6103 46.2009 35.3966 51.5746 1.06076 36.6042L1.19623e-07 38.9686ZM45.7011 18.182C38.7683 17.082 31.987 13.4152 30.2191 11.5945C35.9522 9.90021 41.7738 13.6934 45.7011 18.182Z" fill="#B275DC"/>
</svg>
