<svg width="57" height="75" viewBox="0 0 57 75" fill="none" xmlns="http://www.w3.org/2000/svg">
<path id="Vector" d="M11.6692 75C-5.5689 35.6586 -0.553394 20.5631 6.69777 14.8222C13.9489 9.08128 24.4948 11.5001 32.599 16.2793C32.6381 15.4147 32.7314 14.5534 32.8785 13.7003C34.1287 6.74994 39.3354 -1.24948 57 0.163899L56.7647 3.07808C44.8069 2.13097 37.8204 5.5697 35.9672 13.2777C35.6028 14.8837 35.4398 16.528 35.4818 18.1735C44.8069 24.9927 48.9104 34.3326 45.9541 42.0115C45.7819 42.5269 45.4135 42.9554 44.9273 43.2057C44.4411 43.4561 43.8755 43.5086 43.3507 43.352C39.8061 42.3758 33.4227 30.4276 32.6431 19.7472C25.289 14.8076 14.9932 11.9663 8.5363 17.037C3.25604 21.2188 -2.99496 34.1578 14.4196 73.7761L11.6692 75ZM35.8495 22.2679C37.1292 30.2674 41.3945 38.0919 43.5125 40.1319C45.4834 33.5167 41.071 26.7995 35.8495 22.2679Z" fill="#5774CD"/>
</svg>
