<svg width="20" height="20" viewBox="0 0 20 20" fill="none" xmlns="http://www.w3.org/2000/svg">
<path d="M13.1632 15.5876C13.3393 15.7637 13.4383 16.0026 13.4383 16.2516C13.4383 16.5007 13.3393 16.7396 13.1632 16.9157C12.9871 17.0918 12.7482 17.1908 12.4991 17.1908C12.2501 17.1908 12.0112 17.0918 11.8351 16.9157L5.58506 10.6657C5.49767 10.5786 5.42832 10.4751 5.381 10.3611C5.33368 10.2472 5.30933 10.125 5.30933 10.0016C5.30933 9.87824 5.33368 9.75606 5.381 9.64211C5.42832 9.52815 5.49767 9.42466 5.58506 9.33756L11.8351 3.08756C12.0112 2.91144 12.2501 2.8125 12.4991 2.8125C12.7482 2.8125 12.9871 2.91144 13.1632 3.08756C13.3393 3.26368 13.4383 3.50255 13.4383 3.75163C13.4383 4.0007 13.3393 4.23957 13.1632 4.41569L7.57803 10.0008L13.1632 15.5876Z" fill="#0442BF"/>
</svg>
