<svg width="24" height="24" viewBox="0 0 24 24" fill="none" xmlns="http://www.w3.org/2000/svg">
<path d="M17.8691 9.63116C17.9504 9.71242 18.015 9.80892 18.059 9.91514C18.103 10.0214 18.1257 10.1352 18.1257 10.2502C18.1257 10.3652 18.103 10.4791 18.059 10.5853C18.015 10.6915 17.9504 10.788 17.8691 10.8693L14.3691 14.3693C14.2878 14.4506 14.1913 14.5152 14.0851 14.5592C13.9788 14.6032 13.865 14.6259 13.75 14.6259C13.635 14.6259 13.5212 14.6032 13.4149 14.5592C13.3087 14.5152 13.2122 14.4506 13.1309 14.3693L10.25 11.4872L7.36906 14.3693C7.20488 14.5335 6.98219 14.6257 6.75 14.6257C6.51781 14.6257 6.29512 14.5335 6.13094 14.3693C5.96675 14.2051 5.87451 13.9824 5.87451 13.7502C5.87451 13.518 5.96675 13.2953 6.13094 13.1312L9.63094 9.63116C9.7122 9.5498 9.8087 9.48526 9.91493 9.44123C10.0212 9.39719 10.135 9.37453 10.25 9.37453C10.365 9.37453 10.4788 9.39719 10.5851 9.44123C10.6913 9.48526 10.7878 9.5498 10.8691 9.63116L13.75 12.5132L16.6309 9.63116C16.7122 9.5498 16.8087 9.48526 16.9149 9.44123C17.0212 9.39719 17.135 9.37453 17.25 9.37453C17.365 9.37453 17.4788 9.39719 17.5851 9.44123C17.6913 9.48526 17.7878 9.5498 17.8691 9.63116ZM23.375 12.0002C23.3754 13.9641 22.8674 15.8946 21.9004 17.6039C20.9333 19.3132 19.5403 20.7429 17.8567 21.7541C16.1732 22.7652 14.2565 23.3233 12.2933 23.3739C10.3301 23.4246 8.38719 22.966 6.65375 22.043L2.92953 23.2844C2.62119 23.3873 2.2903 23.4022 1.97395 23.3275C1.6576 23.2529 1.3683 23.0916 1.13846 22.8618C0.908626 22.6319 0.747341 22.3426 0.672685 22.0263C0.598029 21.7099 0.612952 21.379 0.715781 21.0707L1.95719 17.3465C1.14579 15.8209 0.692591 14.1306 0.631997 12.4038C0.571404 10.677 0.905006 8.95901 1.60748 7.38036C2.30996 5.80171 3.36284 4.40385 4.68622 3.29286C6.0096 2.18188 7.56869 1.38699 9.24514 0.968518C10.9216 0.550047 12.6713 0.518999 14.3616 0.877729C16.0518 1.23646 17.6381 1.97554 19.0001 3.03887C20.3621 4.1022 21.4639 5.46184 22.2219 7.01457C22.9799 8.5673 23.3743 10.2723 23.375 12.0002ZM21.625 12.0002C21.6246 10.5238 21.2845 9.06725 20.6311 7.74328C19.9777 6.41931 19.0285 5.26341 17.8568 4.365C16.6852 3.46659 15.3226 2.84976 13.8744 2.56223C12.4263 2.2747 10.9314 2.32418 9.50541 2.70684C8.07943 3.0895 6.7606 3.79508 5.65095 4.76899C4.54129 5.7429 3.67057 6.95904 3.10613 8.32332C2.54169 9.68759 2.29868 11.1634 2.39588 12.6367C2.49309 14.1099 2.92792 15.541 3.66672 16.8193C3.72873 16.9266 3.76723 17.0459 3.77967 17.1692C3.79212 17.2925 3.77822 17.4171 3.73891 17.5346L2.375 21.6252L6.46562 20.2602C6.58324 20.2211 6.70784 20.2074 6.83116 20.22C6.95447 20.2326 7.0737 20.2713 7.18094 20.3335C8.64413 21.1798 10.3044 21.6259 11.9947 21.6268C13.685 21.6277 15.3458 21.1835 16.8099 20.3388C18.274 19.4941 19.4899 18.2787 20.3351 16.8149C21.1804 15.3511 21.6253 13.6905 21.625 12.0002Z" fill="#343330"/>
</svg>
