<svg width="24" height="24" viewBox="0 0 24 24" fill="none" xmlns="http://www.w3.org/2000/svg">
<path d="M20.9995 16.4765V19.1862C21.0005 19.4377 20.9489 19.6867 20.8479 19.9172C20.7469 20.1477 20.5988 20.3546 20.4131 20.5247C20.2274 20.6947 20.0081 20.8242 19.7693 20.9048C19.5306 20.9854 19.2776 21.0153 19.0265 20.9927C16.2416 20.6907 13.5664 19.7409 11.2161 18.2197C9.02935 16.8329 7.1754 14.9827 5.78586 12.8003C4.25634 10.4439 3.30448 7.76107 3.00741 4.96915C2.98479 4.71938 3.01453 4.46764 3.09474 4.22996C3.17495 3.99229 3.30387 3.77389 3.47329 3.58866C3.64271 3.40343 3.84891 3.25544 4.07878 3.15411C4.30865 3.05278 4.55714 3.00032 4.80843 3.00009H7.52353C7.96275 2.99577 8.38856 3.151 8.72158 3.43683C9.05461 3.72267 9.27213 4.11961 9.3336 4.55366C9.4482 5.42084 9.66073 6.27229 9.96713 7.09177C10.0889 7.41507 10.1152 7.76642 10.0431 8.1042C9.97088 8.44198 9.80319 8.75203 9.55986 8.99761L8.41047 10.1447C9.69883 12.406 11.5749 14.2784 13.8407 15.5642L14.9901 14.4171C15.2361 14.1742 15.5468 14.0069 15.8853 13.9348C16.2237 13.8628 16.5758 13.8891 16.8997 14.0106C17.7208 14.3164 18.5739 14.5285 19.4428 14.6429C19.8825 14.7048 20.284 14.9258 20.571 15.2639C20.858 15.6019 21.0105 16.0335 20.9995 16.4765Z" stroke="#45484A" stroke-width="2" stroke-linecap="round" stroke-linejoin="round"/>
</svg>
