<svg width="25" height="24" viewBox="0 0 25 24" fill="none" xmlns="http://www.w3.org/2000/svg">
<path d="M21.723 20.4696L17.0289 15.7765C18.3894 14.1431 19.0679 12.048 18.9231 9.92715C18.7783 7.80629 17.8214 5.82289 16.2515 4.38956C14.6816 2.95623 12.6195 2.18333 10.4943 2.23163C8.36901 2.27993 6.34419 3.14571 4.84102 4.64888C3.33785 6.15205 2.47207 8.17687 2.42377 10.3021C2.37547 12.4274 3.14837 14.4894 4.5817 16.0593C6.01503 17.6293 7.99843 18.5861 10.1193 18.7309C12.2402 18.8757 14.3352 18.1973 15.9686 16.8368L20.6617 21.5308C20.7314 21.6005 20.8141 21.6558 20.9052 21.6935C20.9962 21.7312 21.0938 21.7506 21.1924 21.7506C21.2909 21.7506 21.3885 21.7312 21.4795 21.6935C21.5706 21.6558 21.6533 21.6005 21.723 21.5308C21.7927 21.4612 21.8479 21.3784 21.8856 21.2874C21.9234 21.1963 21.9428 21.0988 21.9428 21.0002C21.9428 20.9017 21.9234 20.8041 21.8856 20.713C21.8479 20.622 21.7927 20.5393 21.723 20.4696ZM3.94235 10.5002C3.94235 9.16519 4.33823 7.86015 5.07993 6.75011C5.82163 5.64008 6.87584 4.77492 8.10924 4.26403C9.34264 3.75314 10.6998 3.61946 12.0092 3.87991C13.3186 4.14036 14.5213 4.78324 15.4653 5.72724C16.4093 6.67125 17.0522 7.87398 17.3127 9.18335C17.5731 10.4927 17.4394 11.8499 16.9285 13.0833C16.4176 14.3167 15.5525 15.3709 14.4425 16.1126C13.3324 16.8543 12.0274 17.2502 10.6924 17.2502C8.90275 17.2482 7.18701 16.5364 5.92157 15.271C4.65613 14.0056 3.94434 12.2898 3.94235 10.5002Z" fill="#343330"/>
</svg>
