<svg width="24" height="24" viewBox="0 0 24 24" fill="none" xmlns="http://www.w3.org/2000/svg">
<path d="M12.0282 0H11.9735C5.3612 0 0.000854492 5.36035 0.000854492 11.9727V12.0273C0.000854492 18.6397 5.3612 24 11.9735 24H12.0282C18.6405 24 24.0009 18.6397 24.0009 12.0273V11.9727C24.0009 5.36035 18.6405 0 12.0282 0Z" fill="black"/>
<path d="M18.0856 9.52813V11.7942C17.6896 11.7555 17.175 11.6655 16.6058 11.457C15.8625 11.1846 15.3092 10.8121 14.9468 10.5237V15.1037L14.9375 15.0894C14.9434 15.1802 14.9468 15.2727 14.9468 15.3661C14.9468 17.6405 13.0961 19.4921 10.8208 19.4921C8.54551 19.4921 6.69482 17.6405 6.69482 15.3661C6.69482 13.0916 8.54551 11.2392 10.8208 11.2392C11.0436 11.2392 11.2623 11.2569 11.4758 11.2914V13.5246C11.2707 13.4515 11.0504 13.412 10.8208 13.412C9.7437 13.412 8.86671 14.2881 8.86671 15.3661C8.86671 16.444 9.7437 17.3202 10.8208 17.3202C11.8979 17.3202 12.7749 16.4432 12.7749 15.3661C12.7749 15.3257 12.7741 15.2853 12.7716 15.245V6.34473H15.0359C15.0443 6.53644 15.0519 6.72983 15.0603 6.92154C15.0754 7.29907 15.21 7.66148 15.4446 7.95829C15.7195 8.30724 16.1256 8.71252 16.6957 9.03624C17.2297 9.33894 17.7308 9.46844 18.0856 9.52982V9.52813Z" fill="#FF004F"/>
<path d="M17.3071 7.69024V9.9563C16.911 9.91762 16.3964 9.82765 15.8272 9.61912C15.0839 9.34669 14.5306 8.9742 14.1682 8.68579V13.2658L14.159 13.2515C14.1649 13.3423 14.1682 13.4348 14.1682 13.5282C14.1682 15.8026 12.3176 17.6542 10.0422 17.6542C7.76694 17.6542 5.91626 15.8026 5.91626 13.5282C5.91626 11.2537 7.76694 9.40135 10.0422 9.40135C10.2651 9.40135 10.4837 9.419 10.6973 9.45348V11.6867C10.4921 11.6136 10.2718 11.5741 10.0422 11.5741C8.96513 11.5741 8.08814 12.4502 8.08814 13.5282C8.08814 14.6061 8.96513 15.4823 10.0422 15.4823C11.1194 15.4823 11.9964 14.6053 11.9964 13.5282C11.9964 13.4878 11.9955 13.4475 11.993 13.4071V4.50684H14.2574C14.2658 4.69855 14.2733 4.89194 14.2817 5.08365C14.2969 5.46118 14.4314 5.82359 14.666 6.1204C14.941 6.46935 15.3471 6.87463 15.9172 7.19835C16.4511 7.50021 16.9522 7.63054 17.3071 7.69192V7.69024Z" fill="#00F7EF"/>
<path d="M17.8023 8.68048V10.9465C17.4063 10.9079 16.8917 10.8179 16.3224 10.6094C15.5791 10.3369 15.0259 9.96443 14.6635 9.67603V14.2561L14.6542 14.2418C14.6601 14.3326 14.6635 14.4251 14.6635 14.5184C14.6635 16.7929 12.8128 18.6444 10.5375 18.6444C8.26218 18.6444 6.4115 16.7929 6.4115 14.5184C6.4115 12.2439 8.26218 10.3916 10.5375 10.3916C10.7603 10.3916 10.9789 10.4092 11.1925 10.4437V12.677C10.9873 12.6038 10.767 12.5643 10.5375 12.5643C9.46037 12.5643 8.58338 13.4405 8.58338 14.5184C8.58338 15.5964 9.46037 16.4725 10.5375 16.4725C11.6146 16.4725 12.4916 15.5955 12.4916 14.5184C12.4916 14.478 12.4907 14.4377 12.4882 14.3973V5.49707H14.7526C14.761 5.68878 14.7686 5.88217 14.777 6.07388C14.7921 6.45142 14.9267 6.81382 15.1612 7.11064C15.4362 7.45958 15.8423 7.86486 16.4124 8.18859C16.9463 8.49045 17.4475 8.62078 17.8023 8.68216V8.68048Z" fill="white"/>
</svg>
