<svg version="1.1" xmlns="http://www.w3.org/2000/svg" xmlns:xlink="http://www.w3.org/1999/xlink" width="48" height="48" viewBox="0,0,256,256"><g fill="#0061ef" fill-rule="nonzero" stroke="none" stroke-width="1" stroke-linecap="butt" stroke-linejoin="miter" stroke-miterlimit="10" stroke-dasharray="" stroke-dashoffset="0" font-family="none" font-weight="none" font-size="none" text-anchor="none" style="mix-blend-mode: normal"><g transform="translate(-2.66667,0) scale(5.33333,5.33333)"><path d="M34.1451,0h-8.0895v32.6956c0,3.8957 -3.1112,7.0957 -6.9831,7.0957c-3.8718,0 -6.9831,-3.2 -6.9831,-7.0957c0,-3.826 3.0421,-6.9565 6.7757,-7.0956v-8.2087c-8.2277,0.1391 -14.8651,6.887 -14.8651,15.3043c0,8.4871 6.7757,15.3044 15.1417,15.3044c8.3658,0 15.1416,-6.8869 15.1416,-15.3044v-16.7652c3.0422,2.2261 6.7757,3.5479 10.7167,3.6175v-8.2088c-6.0843,-0.2087 -10.8549,-5.21737 -10.8549,-11.3391z"></path></g></g></svg>