<svg width="42" height="37" viewBox="0 0 42 37" fill="none" xmlns="http://www.w3.org/2000/svg">
<path d="M42 12.125C42 25.25 22.5394 35.8737 21.7106 36.3125C21.4922 36.43 21.248 36.4915 21 36.4915C20.752 36.4915 20.5078 36.43 20.2894 36.3125C19.4606 35.8737 0 25.25 0 12.125C0.00347388 9.04292 1.22936 6.08808 3.40872 3.90872C5.58808 1.72936 8.54292 0.503474 11.625 0.5C15.4969 0.5 18.8869 2.165 21 4.97937C23.1131 2.165 26.5031 0.5 30.375 0.5C33.4571 0.503474 36.4119 1.72936 38.5913 3.90872C40.7706 6.08808 41.9965 9.04292 42 12.125Z" fill="#F6CE3C"/>
</svg>
