<svg width="36" height="44" viewBox="0 0 36 44" fill="none" xmlns="http://www.w3.org/2000/svg">
<path d="M35.9532 30.9172C35.5191 25.8469 30.8779 23.3992 28.8499 22.5609C28.7522 22.5208 28.6659 22.456 28.5989 22.3726C28.532 22.2892 28.4866 22.1898 28.4669 22.0836C28.4472 21.9774 28.4539 21.8679 28.4864 21.765C28.5188 21.6622 28.576 21.5694 28.6525 21.4952C29.2482 20.9209 29.8516 20.3387 30.4226 19.7932C33.5278 16.8306 35.3209 12.6459 35.1668 8.29509C35.092 6.16471 34.5618 4.18643 33.2725 2.96957C30.209 0.0847688 26.3855 0.52186 23.841 3.47834C23.0129 4.43603 22.2624 5.46166 21.597 6.54498C20.6166 8.16571 19.7937 9.89047 19.2397 11.7149C18.4074 14.4476 17.6994 15.9433 17.0739 16.6461C16.3472 17.4635 14.5474 18.8167 13.0819 17.8298C11.6165 16.8428 11.648 14.7876 11.6804 10.1833C11.7127 5.579 11.1536 3.78518 10.2711 2.3489C9.38865 0.912619 7.40074 -0.436244 4.89202 0.133723C2.3833 0.70369 1.4438 2.98793 1.4438 2.98793C-0.779833 8.59493 0.962995 12.8373 3.45214 15.0516C5.94129 17.2659 8.30279 17.5763 9.97838 17.5702C10.4192 17.5702 10.8294 17.5798 11.054 17.6497C11.7433 17.863 12.1314 18.3263 12.3552 18.8736C12.6479 19.5895 12.5254 20.232 12.282 20.8711C11.0404 24.0749 8.70786 24.3241 4.68267 27.5149C0.342623 30.9521 -1.21214 37.568 1.00214 40.9554C3.21642 44.3429 6.48337 44.3708 8.59297 43.5657C10.7026 42.7606 12.8173 41.2194 14.7507 39.7639C16.6842 38.3084 17.2186 36.838 19.4491 36.9779C21.6795 37.1177 23.573 39.4614 24.9218 41.1608C26.2706 42.8602 28.3853 42.1985 28.3853 42.1985C31.9944 41.2115 36.5097 37.4228 35.9532 30.9172ZM18.3649 23.894C17.5139 25.2236 16.2502 25.9125 15.5371 25.4326C14.8239 24.9526 14.9354 23.4849 15.7847 22.1552C16.634 20.8256 17.8994 20.1359 18.6125 20.6158C19.3257 21.0957 19.2142 22.5635 18.3649 23.894Z" fill="#0057D7"/>
</svg>
