<svg width="164" height="46" viewBox="0 0 164 46" fill="none" xmlns="http://www.w3.org/2000/svg">
<path d="M4.08269 25.2275V19.7725C4.08269 18.9213 3.3926 18.2312 2.54134 18.2312C1.69008 18.2312 1 18.9213 1 19.7725V25.2275C1 26.0787 1.69008 26.7688 2.54134 26.7688C3.3926 26.7688 4.08269 26.0787 4.08269 25.2275Z" fill="black" fill-opacity="0.2"/>
<path d="M10.1652 29.5599V15.4403C10.1652 14.589 9.47512 13.8989 8.62386 13.8989C7.7726 13.8989 7.08252 14.589 7.08252 15.4403V29.5599C7.08252 30.4112 7.7726 31.1013 8.62386 31.1013C9.47512 31.1013 10.1652 30.4112 10.1652 29.5599Z" fill="black" fill-opacity="0.2"/>
<path d="M16.2481 31.4595V13.5403C16.2481 12.6891 15.5581 11.999 14.7068 11.999C13.8556 11.999 13.1655 12.6891 13.1655 13.5403V31.4595C13.1655 32.3107 13.8556 33.0008 14.7068 33.0008C15.5581 33.0008 16.2481 32.3107 16.2481 31.4595Z" fill="black" fill-opacity="0.2"/>
<path d="M22.3306 30.786V14.2141C22.3306 13.3629 21.6406 12.6729 20.7893 12.6729C19.9381 12.6729 19.248 13.3629 19.248 14.2141V30.786C19.248 31.6372 19.9381 32.3273 20.7893 32.3273C21.6406 32.3273 22.3306 31.6372 22.3306 30.786Z" fill="black" fill-opacity="0.2"/>
<path d="M28.4133 36.6624V8.33749C28.4133 7.48623 27.7232 6.79614 26.8719 6.79614C26.0206 6.79614 25.3306 7.48622 25.3306 8.33748V36.6624C25.3306 37.5136 26.0206 38.2037 26.8719 38.2037C27.7232 38.2037 28.4133 37.5136 28.4133 36.6624Z" fill="black" fill-opacity="0.2"/>
<path d="M34.4956 40.9587V4.04128C34.4956 3.19005 33.8056 2.5 32.9544 2.5C32.1031 2.5 31.4131 3.19005 31.4131 4.04128V40.9587C31.4131 41.8099 32.1031 42.5 32.9544 42.5C33.8056 42.5 34.4956 41.8099 34.4956 40.9587Z" fill="black" fill-opacity="0.2"/>
<path d="M40.5782 36.6624V8.33745C40.5782 7.48621 39.8882 6.79614 39.0369 6.79614C38.1857 6.79614 37.4956 7.48621 37.4956 8.33745V36.6624C37.4956 37.5137 38.1857 38.2037 39.0369 38.2037C39.8882 38.2037 40.5782 37.5137 40.5782 36.6624Z" fill="black" fill-opacity="0.2"/>
<path d="M46.6611 31.7645V13.2353C46.6611 12.3841 45.9711 11.6941 45.1199 11.6941C44.2687 11.6941 43.5786 12.3841 43.5786 13.2353V31.7645C43.5786 32.6157 44.2687 33.3058 45.1199 33.3058C45.9711 33.3058 46.6611 32.6157 46.6611 31.7645Z" fill="black" fill-opacity="0.2"/>
<path d="M52.7437 27.8769V17.1231C52.7437 16.2718 52.0536 15.5818 51.2024 15.5818C50.3512 15.5818 49.6611 16.2718 49.6611 17.1231V27.8769C49.6611 28.7281 50.3512 29.4181 51.2024 29.4181C52.0536 29.4181 52.7437 28.7281 52.7437 27.8769Z" fill="black" fill-opacity="0.2"/>
<path d="M58.8262 29.3231V15.6768C58.8262 14.8256 58.1362 14.1355 57.285 14.1355C56.4337 14.1355 55.7437 14.8256 55.7437 15.6768V29.3231C55.7437 30.1743 56.4337 30.8644 57.285 30.8644C58.1362 30.8644 58.8262 30.1743 58.8262 29.3231Z" fill="black" fill-opacity="0.2"/>
<path d="M64.9087 25.4374V19.5625C64.9087 18.7113 64.2187 18.0212 63.3674 18.0212C62.5162 18.0212 61.8262 18.7113 61.8262 19.5625V25.4374C61.8262 26.2886 62.5162 26.9787 63.3674 26.9787C64.2187 26.9787 64.9087 26.2886 64.9087 25.4374Z" fill="black" fill-opacity="0.2"/>
<path d="M70.9913 26.3203V18.6795C70.9913 17.8282 70.3012 17.1382 69.45 17.1382C68.5988 17.1382 67.9087 17.8282 67.9087 18.6795V26.3203C67.9087 27.1715 68.5988 27.8616 69.45 27.8616C70.3012 27.8616 70.9913 27.1715 70.9913 26.3203Z" fill="black" fill-opacity="0.2"/>
<path d="M77.0738 25.4038V19.5962C77.0738 18.745 76.3837 18.0549 75.5325 18.0549C74.6813 18.0549 73.9912 18.745 73.9912 19.5962V25.4038C73.9912 26.2551 74.6813 26.9451 75.5325 26.9451C76.3837 26.9451 77.0738 26.255 77.0738 25.4038Z" fill="black" fill-opacity="0.2"/>
<path d="M83.1563 27.8646V17.1353C83.1563 16.284 82.4662 15.594 81.615 15.594C80.7638 15.594 80.0737 16.284 80.0737 17.1353V27.8646C80.0737 28.7158 80.7638 29.4058 81.615 29.4058C82.4662 29.4058 83.1563 28.7158 83.1563 27.8646Z" fill="black" fill-opacity="0.2"/>
<path d="M89.2388 27.1526V17.8472C89.2388 16.996 88.5488 16.3059 87.6975 16.3059C86.8463 16.3059 86.1562 16.996 86.1562 17.8472V27.1526C86.1562 28.0038 86.8463 28.6939 87.6975 28.6939C88.5488 28.6939 89.2388 28.0038 89.2388 27.1526Z" fill="black" fill-opacity="0.2"/>
<path d="M95.3214 30.9616V14.0384C95.3214 13.1871 94.6313 12.4971 93.7801 12.4971C92.9288 12.4971 92.2388 13.1871 92.2388 14.0384V30.9616C92.2388 31.8128 92.9288 32.5029 93.7801 32.5029C94.6313 32.5029 95.3214 31.8128 95.3214 30.9616Z" fill="black" fill-opacity="0.2"/>
<path d="M101.404 34.3V10.7C101.404 9.84875 100.714 9.15869 99.8626 9.15869C99.0114 9.15869 98.3213 9.84875 98.3213 10.7V34.3C98.3213 35.1512 99.0114 35.8413 99.8626 35.8413C100.714 35.8413 101.404 35.1512 101.404 34.3Z" fill="black" fill-opacity="0.2"/>
<path d="M107.487 36.6815V8.31837C107.487 7.46715 106.797 6.7771 105.946 6.7771C105.094 6.7771 104.404 7.46715 104.404 8.31838V36.6815C104.404 37.5327 105.094 38.2228 105.946 38.2228C106.797 38.2228 107.487 37.5327 107.487 36.6815Z" fill="black" fill-opacity="0.2"/>
<path d="M113.569 31.5422V13.4578C113.569 12.6066 112.879 11.9165 112.028 11.9165C111.177 11.9165 110.487 12.6066 110.487 13.4578V31.5422C110.487 32.3934 111.177 33.0835 112.028 33.0835C112.879 33.0835 113.569 32.3934 113.569 31.5422Z" fill="black" fill-opacity="0.2"/>
<path d="M119.652 32.9209V12.0789C119.652 11.2277 118.962 10.5376 118.111 10.5376C117.259 10.5376 116.569 11.2277 116.569 12.0789V32.9209C116.569 33.7721 117.259 34.4622 118.111 34.4622C118.962 34.4622 119.652 33.7721 119.652 32.9209Z" fill="black" fill-opacity="0.2"/>
<path d="M125.734 29.3893V15.6109C125.734 14.7596 125.044 14.0696 124.193 14.0696C123.342 14.0696 122.652 14.7596 122.652 15.6109V29.3893C122.652 30.2405 123.342 30.9306 124.193 30.9306C125.044 30.9306 125.734 30.2405 125.734 29.3893Z" fill="black" fill-opacity="0.2"/>
<path d="M131.817 26.4814V18.5184C131.817 17.6671 131.127 16.9771 130.276 16.9771C129.424 16.9771 128.734 17.6671 128.734 18.5184V26.4814C128.734 27.3327 129.424 28.0227 130.276 28.0227C131.127 28.0227 131.817 27.3327 131.817 26.4814Z" fill="black" fill-opacity="0.2"/>
<path d="M137.92 25.1251L137.904 19.871C137.902 19.0198 137.209 18.3306 136.358 18.3316C135.507 18.3327 134.819 19.0235 134.822 19.8748L134.838 25.1289C134.84 25.9801 135.532 26.6693 136.384 26.6683C137.235 26.6672 137.923 25.9764 137.92 25.1251Z" fill="black" fill-opacity="0.2"/>
<path d="M144.007 28.4485V16.5516C144.007 15.7003 143.317 15.0103 142.466 15.0103C141.615 15.0103 140.925 15.7003 140.925 16.5516V28.4485C140.925 29.2998 141.615 29.9898 142.466 29.9898C143.317 29.9898 144.007 29.2998 144.007 28.4485Z" fill="black" fill-opacity="0.2"/>
<path d="M150.09 30.7737V14.2264C150.09 13.3751 149.4 12.6851 148.549 12.6851C147.698 12.6851 147.008 13.3751 147.008 14.2264V30.7737C147.008 31.6249 147.698 32.315 148.549 32.315C149.4 32.315 150.09 31.6249 150.09 30.7737Z" fill="black" fill-opacity="0.2"/>
<path d="M156.173 27.2066V17.7933C156.173 16.942 155.483 16.252 154.632 16.252C153.78 16.252 153.09 16.942 153.09 17.7933V27.2066C153.09 28.0579 153.78 28.748 154.632 28.748C155.483 28.748 156.173 28.0579 156.173 27.2066Z" fill="black" fill-opacity="0.2"/>
<path d="M162.255 27.8646V17.1353C162.255 16.284 161.565 15.594 160.714 15.594C159.863 15.594 159.173 16.284 159.173 17.1353V27.8646C159.173 28.7158 159.863 29.4058 160.714 29.4058C161.565 29.4058 162.255 28.7158 162.255 27.8646Z" fill="black" fill-opacity="0.2"/>
</svg>
