<svg width="56" height="55" viewBox="0 0 56 55" fill="none" xmlns="http://www.w3.org/2000/svg">
<g id="Vector">
<path d="M0.419434 -1H56.4194V55L27.9449 27.4746L0.419434 -1Z" fill="#C1D5FE"/>
<path d="M30.4194 5H50.4194V25H30.4194V5Z" fill="#C1D5FE"/>
<path d="M36.7736 10.3333L39.1069 7.3125C39.2736 7.09028 39.4715 6.92708 39.7007 6.82292C39.9299 6.71875 40.1694 6.66667 40.4194 6.66667C40.6694 6.66667 40.909 6.71875 41.1382 6.82292C41.3674 6.92708 41.5653 7.09028 41.7319 7.3125L44.0653 10.3333L47.6069 11.5208C47.968 11.6319 48.2528 11.8368 48.4611 12.1354C48.6694 12.434 48.7736 12.7639 48.7736 13.125C48.7736 13.2917 48.7493 13.4583 48.7007 13.625C48.6521 13.7917 48.5722 13.9514 48.4611 14.1042L46.1694 17.3542L46.2528 20.7708C46.2667 21.2569 46.1069 21.6667 45.7736 22C45.4403 22.3333 45.0514 22.5 44.6069 22.5C44.5792 22.5 44.4264 22.4792 44.1486 22.4375L40.4194 21.3958L36.6903 22.4375C36.6208 22.4653 36.5444 22.4826 36.4611 22.4896C36.3778 22.4965 36.3014 22.5 36.2319 22.5C35.7875 22.5 35.3986 22.3333 35.0653 22C34.7319 21.6667 34.5722 21.2569 34.5861 20.7708L34.6694 17.3333L32.3986 14.1042C32.2875 13.9514 32.2076 13.7917 32.159 13.625C32.1104 13.4583 32.0861 13.2917 32.0861 13.125C32.0861 12.7778 32.1868 12.4549 32.3882 12.1562C32.5896 11.8576 32.8708 11.6458 33.2319 11.5208L36.7736 10.3333Z" fill="#0442BF"/>
</g>
</svg>
