<svg width="148" height="42" viewBox="0 0 148 42" fill="none" xmlns="http://www.w3.org/2000/svg">
<path d="M4.07422 23.0964V18.187C4.07422 17.4209 3.45315 16.7998 2.68701 16.7998C1.92088 16.7998 1.2998 17.4209 1.2998 18.187V23.0964C1.2998 23.8626 1.92088 24.4837 2.68701 24.4837C3.45315 24.4837 4.07422 23.8626 4.07422 23.0964Z" fill="black" fill-opacity="0.2"/>
<path d="M9.54883 26.9953V14.2876C9.54883 13.5215 8.92776 12.9004 8.16162 12.9004C7.39549 12.9004 6.77441 13.5215 6.77441 14.2876V26.9953C6.77441 27.7614 7.39549 28.3825 8.16162 28.3825C8.92776 28.3825 9.54883 27.7614 9.54883 26.9953Z" fill="black" fill-opacity="0.2"/>
<path d="M15.0234 28.7048V12.5776C15.0234 11.8115 14.4023 11.1904 13.6362 11.1904C12.8701 11.1904 12.249 11.8115 12.249 12.5776V28.7048C12.249 29.4709 12.8701 30.092 13.6362 30.092C14.4023 30.092 15.0234 29.4709 15.0234 28.7048Z" fill="black" fill-opacity="0.2"/>
<path d="M20.497 28.0987V13.184C20.497 12.4179 19.8759 11.7969 19.1098 11.7969C18.3437 11.7969 17.7227 12.4179 17.7227 13.184V28.0987C17.7227 28.8648 18.3437 29.4859 19.1098 29.4859C19.8759 29.4859 20.497 28.8648 20.497 28.0987Z" fill="black" fill-opacity="0.2"/>
<path d="M25.9717 33.3874V7.89502C25.9717 7.12889 25.3506 6.50781 24.5845 6.50781C23.8183 6.50781 23.1973 7.12889 23.1973 7.89502V33.3874C23.1973 34.1536 23.8183 34.7746 24.5845 34.7746C25.3506 34.7746 25.9717 34.1536 25.9717 33.3874Z" fill="black" fill-opacity="0.2"/>
<path d="M31.4462 37.2545V4.02875C31.4462 3.26265 30.8251 2.6416 30.059 2.6416C29.2929 2.6416 28.6719 3.26265 28.6719 4.02875V37.2545C28.6719 38.0206 29.2929 38.6416 30.059 38.6416C30.8251 38.6416 31.4462 38.0206 31.4462 37.2545Z" fill="black" fill-opacity="0.2"/>
<path d="M36.9208 33.3875V7.89499C36.9208 7.12887 36.2998 6.50781 35.5337 6.50781C34.7675 6.50781 34.1465 7.12887 34.1465 7.89499V33.3875C34.1465 34.1536 34.7675 34.7746 35.5337 34.7746C36.2998 34.7746 36.9208 34.1536 36.9208 33.3875Z" fill="black" fill-opacity="0.2"/>
<path d="M42.3944 28.9794V12.3031C42.3944 11.5371 41.7733 10.916 41.0072 10.916C40.2412 10.916 39.6201 11.5371 39.6201 12.3031V28.9794C39.6201 29.7455 40.2412 30.3665 41.0072 30.3665C41.7733 30.3665 42.3944 29.7455 42.3944 28.9794Z" fill="black" fill-opacity="0.2"/>
<path d="M47.869 25.4806V15.8022C47.869 15.0361 47.248 14.415 46.4819 14.415C45.7158 14.415 45.0947 15.0361 45.0947 15.8022V25.4806C45.0947 26.2467 45.7158 26.8677 46.4819 26.8677C47.248 26.8677 47.869 26.2467 47.869 25.4806Z" fill="black" fill-opacity="0.2"/>
<path d="M53.3437 26.7821V14.5004C53.3437 13.7343 52.7226 13.1133 51.9565 13.1133C51.1904 13.1133 50.5693 13.7343 50.5693 14.5005V26.7821C50.5693 27.5482 51.1904 28.1693 51.9565 28.1693C52.7226 28.1693 53.3437 27.5482 53.3437 26.7821Z" fill="black" fill-opacity="0.2"/>
<path d="M58.8173 23.2849V17.9975C58.8173 17.2314 58.1962 16.6104 57.4301 16.6104C56.664 16.6104 56.043 17.2314 56.043 17.9975V23.2849C56.043 24.051 56.664 24.672 57.4301 24.672C58.1962 24.672 58.8173 24.051 58.8173 23.2849Z" fill="black" fill-opacity="0.2"/>
<path d="M64.2919 24.0803V17.2036C64.2919 16.4375 63.6709 15.8164 62.9047 15.8164C62.1386 15.8164 61.5176 16.4375 61.5176 17.2036V24.0803C61.5176 24.8464 62.1386 25.4675 62.9047 25.4675C63.6709 25.4675 64.2919 24.8464 64.2919 24.0803Z" fill="black" fill-opacity="0.2"/>
<path d="M69.7665 23.2546V18.0278C69.7665 17.2617 69.1455 16.6406 68.3794 16.6406C67.6132 16.6406 66.9922 17.2617 66.9922 18.0278V23.2546C66.9922 24.0207 67.6132 24.6418 68.3794 24.6418C69.1455 24.6418 69.7665 24.0207 69.7665 23.2546Z" fill="black" fill-opacity="0.2"/>
<path d="M75.2401 25.4693V15.8129C75.2401 15.0468 74.6191 14.4258 73.853 14.4258C73.0869 14.4258 72.4658 15.0468 72.4658 15.8129V25.4693C72.4658 26.2354 73.0869 26.8564 73.853 26.8564C74.6191 26.8564 75.2401 26.2354 75.2401 25.4693Z" fill="black" fill-opacity="0.2"/>
<path d="M80.7148 24.8284V16.4536C80.7148 15.6875 80.0937 15.0664 79.3276 15.0664C78.5615 15.0664 77.9404 15.6875 77.9404 16.4536V24.8284C77.9404 25.5945 78.5615 26.2156 79.3276 26.2156C80.0937 26.2156 80.7148 25.5945 80.7148 24.8284Z" fill="black" fill-opacity="0.2"/>
<path d="M86.1894 28.2568V13.0258C86.1894 12.2597 85.5683 11.6387 84.8022 11.6387C84.0361 11.6387 83.415 12.2597 83.415 13.0258V28.2568C83.415 29.0229 84.0361 29.6439 84.8022 29.6439C85.5683 29.6439 86.1894 29.0229 86.1894 28.2568Z" fill="black" fill-opacity="0.2"/>
<path d="M91.664 31.2619V10.0219C91.664 9.25582 91.0429 8.63477 90.2768 8.63477C89.5107 8.63477 88.8896 9.25582 88.8896 10.0219V31.2619C88.8896 32.0281 89.5107 32.6491 90.2768 32.6491C91.0429 32.6491 91.664 32.0281 91.664 31.2619Z" fill="black" fill-opacity="0.2"/>
<path d="M97.1376 33.4052V7.87836C97.1376 7.11226 96.5165 6.49121 95.7504 6.49121C94.9843 6.49121 94.3633 7.11226 94.3633 7.87836V33.4052C94.3633 34.1713 94.9843 34.7923 95.7504 34.7923C96.5165 34.7923 97.1376 34.1713 97.1376 33.4052Z" fill="black" fill-opacity="0.2"/>
<path d="M102.612 28.7793V12.5034C102.612 11.7373 101.991 11.1162 101.225 11.1162C100.459 11.1162 99.8379 11.7373 99.8379 12.5034V28.7793C99.8379 29.5454 100.459 30.1665 101.225 30.1665C101.991 30.1665 102.612 29.5454 102.612 28.7793Z" fill="black" fill-opacity="0.2"/>
<path d="M108.087 30.0209V11.2631C108.087 10.497 107.466 9.87598 106.7 9.87598C105.934 9.87598 105.312 10.497 105.312 11.2631V30.0209C105.312 30.7871 105.934 31.4081 106.7 31.4081C107.466 31.4081 108.087 30.787 108.087 30.0209Z" fill="black" fill-opacity="0.2"/>
<path d="M113.56 26.8415V14.4409C113.56 13.6748 112.939 13.0537 112.173 13.0537C111.407 13.0537 110.786 13.6748 110.786 14.4409V26.8415C110.786 27.6076 111.407 28.2286 112.173 28.2286C112.939 28.2286 113.56 27.6076 113.56 26.8415Z" fill="black" fill-opacity="0.2"/>
<path d="M119.035 24.2248V17.0581C119.035 16.292 118.414 15.6709 117.648 15.6709C116.882 15.6709 116.261 16.292 116.261 17.0581V24.2248C116.261 24.9909 116.882 25.612 117.648 25.612C118.414 25.612 119.035 24.9909 119.035 24.2248Z" fill="black" fill-opacity="0.2"/>
<path d="M124.528 23.0041L124.514 18.2754C124.512 17.5093 123.889 16.889 123.122 16.8899C122.356 16.8908 121.737 17.5126 121.74 18.2787L121.754 23.0074C121.756 23.7735 122.379 24.3938 123.145 24.3929C123.911 24.392 124.531 23.7702 124.528 23.0041Z" fill="black" fill-opacity="0.2"/>
<path d="M130.007 25.9949V15.2876C130.007 14.5214 129.386 13.9004 128.62 13.9004C127.853 13.9004 127.232 14.5214 127.232 15.2876V25.9949C127.232 26.761 127.853 27.382 128.62 27.382C129.386 27.382 130.007 26.761 130.007 25.9949Z" fill="black" fill-opacity="0.2"/>
<path d="M135.481 28.0874V13.1948C135.481 12.4287 134.86 11.8076 134.094 11.8076C133.328 11.8076 132.707 12.4287 132.707 13.1948V28.0874C132.707 28.8535 133.328 29.4746 134.094 29.4746C134.86 29.4746 135.481 28.8535 135.481 28.0874Z" fill="black" fill-opacity="0.2"/>
<path d="M140.955 24.8778V16.4057C140.955 15.6396 140.334 15.0186 139.568 15.0186C138.802 15.0186 138.181 15.6396 138.181 16.4057V24.8778C138.181 25.6439 138.802 26.265 139.568 26.265C140.334 26.265 140.955 25.6439 140.955 24.8778Z" fill="black" fill-opacity="0.2"/>
<path d="M146.43 25.4693V15.8129C146.43 15.0468 145.809 14.4258 145.042 14.4258C144.276 14.4258 143.655 15.0468 143.655 15.8129V25.4693C143.655 26.2354 144.276 26.8564 145.042 26.8564C145.809 26.8564 146.43 26.2354 146.43 25.4693Z" fill="black" fill-opacity="0.2"/>
</svg>
