<svg width="48" height="48" viewBox="0 0 48 48" fill="none" xmlns="http://www.w3.org/2000/svg">
<mask id="mask0_13703_115116" style="mask-type:alpha" maskUnits="userSpaceOnUse" x="0" y="0" width="48" height="48">
<rect width="48" height="48" fill="#D9D9D9"/>
</mask>
<g mask="url(#mask0_13703_115116)">
<path d="M19.7858 31.7858C20.5668 32.5668 21.8332 32.5668 22.6142 31.7858L33.9 20.5C34.6732 19.7268 34.6732 18.4732 33.9 17.7C33.1268 16.9268 31.8732 16.9268 31.1 17.7L21.5536 27.2464C21.3583 27.4417 21.0417 27.4417 20.8464 27.2464L16.9 23.3C16.1268 22.5268 14.8732 22.5268 14.1 23.3C13.3268 24.0732 13.3268 25.3268 14.1 26.1L19.7858 31.7858ZM24 44C21.2333 44 18.6333 43.4747 16.2 42.424C13.7667 41.3747 11.65 39.95 9.85 38.15C8.05 36.35 6.62533 34.2333 5.576 31.8C4.52533 29.3667 4 26.7667 4 24C4 21.2333 4.52533 18.6333 5.576 16.2C6.62533 13.7667 8.05 11.65 9.85 9.85C11.65 8.05 13.7667 6.62467 16.2 5.574C18.6333 4.52467 21.2333 4 24 4C26.7667 4 29.3667 4.52467 31.8 5.574C34.2333 6.62467 36.35 8.05 38.15 9.85C39.95 11.65 41.3747 13.7667 42.424 16.2C43.4747 18.6333 44 21.2333 44 24C44 26.7667 43.4747 29.3667 42.424 31.8C41.3747 34.2333 39.95 36.35 38.15 38.15C36.35 39.95 34.2333 41.3747 31.8 42.424C29.3667 43.4747 26.7667 44 24 44Z" fill="#32D583"/>
</g>
</svg>
