<svg width="9" height="16" viewBox="0 0 9 16" fill="none" xmlns="http://www.w3.org/2000/svg">
    <path d="M7.91325 8.66374L1.66325 14.9137C1.48713 15.0899 1.24826 15.1888 0.999184 15.1888C0.750113 15.1888 0.511242 15.0899 0.335122 14.9137C0.159002 14.7376 0.0600586 14.4987 0.0600586 14.2497C0.0600586 14.0006 0.159002 13.7617 0.335122 13.5856L5.92184 8.00045L0.336685 2.41374C0.249479 2.32653 0.180303 2.223 0.133108 2.10906C0.0859121 1.99512 0.0616208 1.873 0.0616208 1.74967C0.0616208 1.62635 0.0859122 1.50422 0.133108 1.39028C0.180303 1.27634 0.249479 1.17282 0.336685 1.08561C0.423891 0.998405 0.527419 0.929229 0.641359 0.882034C0.755299 0.834838 0.87742 0.810547 1.00075 0.810547C1.12408 0.810547 1.2462 0.834838 1.36014 0.882034C1.47408 0.929229 1.5776 0.998405 1.66481 1.08561L7.91481 7.33561C8.00211 7.42281 8.07133 7.52638 8.11852 7.6404C8.1657 7.75441 8.18991 7.87661 8.18977 8C8.18962 8.12339 8.16512 8.24553 8.11767 8.35943C8.07022 8.47333 8.00075 8.57674 7.91325 8.66374Z" fill="white"/>
</svg>
