<svg width="72" height="72" viewBox="0 0 72 72" fill="none" xmlns="http://www.w3.org/2000/svg">
<path d="M0 16C0 7.16344 7.16344 0 16 0H56C64.8366 0 72 7.16344 72 16V56C72 64.8366 64.8366 72 56 72H16C7.16344 72 0 64.8366 0 56V16Z" fill="#CDDDFE"/>
<path d="M18 18C15.6131 18 13.3239 18.9482 11.636 20.636C9.94821 22.3239 9 24.6131 9 27V45C9 47.3869 9.94821 49.6761 11.636 51.364C13.3239 53.0518 15.6131 54 18 54H36C38.3869 54 40.6761 53.0518 42.364 51.364C44.0518 49.6761 45 47.3869 45 45V27C45 24.6131 44.0518 22.3239 42.364 20.636C40.6761 18.9482 38.3869 18 36 18H18ZM63 24.75C63 24.3321 62.8836 23.9226 62.664 23.5671C62.4443 23.2117 62.13 22.9244 61.7562 22.7375C61.3825 22.5507 60.9641 22.4716 60.5479 22.5091C60.1318 22.5466 59.7343 22.6993 59.4 22.95L50.4 29.7C50.1206 29.9096 49.8938 30.1813 49.7375 30.4938C49.5813 30.8062 49.5 31.1507 49.5 31.5V40.5C49.5 40.8493 49.5813 41.1938 49.7375 41.5062C49.8938 41.8187 50.1206 42.0904 50.4 42.3L59.4 49.05C59.7343 49.3007 60.1318 49.4534 60.5479 49.4909C60.9641 49.5284 61.3825 49.4493 61.7562 49.2625C62.13 49.0756 62.4443 48.7883 62.664 48.4329C62.8836 48.0775 63 47.6679 63 47.25V24.75Z" fill="#F3F4F6"/>
</svg>
