<svg xmlns="http://www.w3.org/2000/svg"
width="24"
height="24"
viewBox="0 0 24 24"
fill="none"
>
  <path
    fill-rule="evenodd"
    clip-rule="evenodd"
    d="M5 16.25C5.19891 16.25 5.38968 16.329 5.53033 16.4697C5.67098 16.6103 5.75 16.8011 5.75 17V19C5.75 19.138 5.862 19.25 6 19.25H18C18.0663 19.25 18.1299 19.2237 18.1768 19.1768C18.2237 19.1299 18.25 19.0663 18.25 19V17C18.25 16.8011 18.329 16.6103 18.4697 16.4697C18.6103 16.329 18.8011 16.25 19 16.25C19.1989 16.25 19.3897 16.329 19.5303 16.4697C19.671 16.6103 19.75 16.8011 19.75 17V19C19.75 19.4641 19.5656 19.9092 19.2374 20.2374C18.9092 20.5656 18.4641 20.75 18 20.75H6C5.53587 20.75 5.09075 20.5656 4.76256 20.2374C4.43437 19.9092 4.25 19.4641 4.25 19V17C4.25 16.8011 4.32902 16.6103 4.46967 16.4697C4.61032 16.329 4.80109 16.25 5 16.25Z"
    fill="white"
  />
  <path
    d="M10.7379 3.75C10.4897 3.75007 10.2506 3.84314 10.0677 4.01087C9.88477 4.17859 9.77137 4.40877 9.74986 4.656C9.59597 6.40842 9.56857 8.16964 9.66786 9.926C9.42086 9.939 9.17486 9.956 8.92786 9.973L7.43786 10.082C7.30663 10.0916 7.18015 10.1351 7.0708 10.2083C6.96144 10.2815 6.87295 10.3818 6.81398 10.4994C6.75502 10.617 6.7276 10.7479 6.73442 10.8793C6.74123 11.0107 6.78204 11.1381 6.85286 11.249C7.91475 12.9111 9.28306 14.3561 10.8849 15.507L11.4819 15.936C11.6328 16.0444 11.814 16.1027 11.9999 16.1027C12.1857 16.1027 12.3669 16.0444 12.5179 15.936L13.1149 15.507C14.7166 14.3561 16.085 12.9111 17.1469 11.249C17.2177 11.1381 17.2585 11.0107 17.2653 10.8793C17.2721 10.7479 17.2447 10.617 17.1857 10.4994C17.1268 10.3818 17.0383 10.2815 16.9289 10.2083C16.8196 10.1351 16.6931 10.0916 16.5619 10.082L15.0719 9.973C14.8253 9.95517 14.5787 9.9395 14.3319 9.926C14.4315 8.16967 14.4044 6.40844 14.2509 4.656C14.2293 4.4086 14.1158 4.17828 13.9327 4.01053C13.7496 3.84278 13.5102 3.74982 13.2619 3.75H10.7379Z"
    fill="white"
  />
</svg>