<svg width="47" height="36" viewBox="0 0 47 36" fill="none" xmlns="http://www.w3.org/2000/svg">
    <path d="M44.5 0.5H2.5C2.03587 0.5 1.59075 0.684375 1.26256 1.01256C0.934374 1.34075 0.75 1.78587 0.75 2.25V32C0.75 32.9283 1.11875 33.8185 1.77513 34.4749C2.4315 35.1312 3.32174 35.5 4.25 35.5H42.75C43.6783 35.5 44.5685 35.1312 45.2249 34.4749C45.8812 33.8185 46.25 32.9283 46.25 32V2.25C46.25 1.78587 46.0656 1.34075 45.7374 1.01256C45.4092 0.684375 44.9641 0.5 44.5 0.5ZM40.0003 4L23.5 19.1266L6.99969 4H40.0003ZM42.75 32H4.25V6.22906L22.3166 22.7906C22.6394 23.087 23.0617 23.2514 23.5 23.2514C23.9383 23.2514 24.3606 23.087 24.6834 22.7906L42.75 6.22906V32Z" fill="#38AA16"/>
</svg>
