<svg width="47" height="46" viewBox="0 0 47 46" fill="none" xmlns="http://www.w3.org/2000/svg">
    <path d="M33.4881 16.5119C33.6508 16.6744 33.7799 16.8674 33.868 17.0799C33.9561 17.2923 34.0014 17.52 34.0014 17.75C34.0014 17.98 33.9561 18.2077 33.868 18.4201C33.7799 18.6326 33.6508 18.8256 33.4881 18.9881L21.2381 31.2381C21.0756 31.4008 20.8826 31.5299 20.6702 31.618C20.4577 31.706 20.23 31.7514 20 31.7514C19.77 31.7514 19.5423 31.706 19.3299 31.618C19.1174 31.5299 18.9244 31.4008 18.7619 31.2381L13.5119 25.9881C13.1835 25.6598 12.999 25.2144 12.999 24.75C12.999 24.2856 13.1835 23.8402 13.5119 23.5119C13.8403 23.1835 14.2856 22.999 14.75 22.999C15.2144 22.999 15.6598 23.1835 15.9881 23.5119L20 27.5259L31.0119 16.5119C31.1744 16.3492 31.3674 16.2201 31.5799 16.132C31.7923 16.044 32.02 15.9986 32.25 15.9986C32.48 15.9986 32.7077 16.044 32.9202 16.132C33.1326 16.2201 33.3256 16.3492 33.4881 16.5119ZM46.25 23C46.25 27.4995 44.9157 31.898 42.4159 35.6392C39.9161 39.3804 36.3631 42.2964 32.2061 44.0183C28.049 45.7402 23.4748 46.1907 19.0617 45.3129C14.6486 44.4351 10.595 42.2683 7.41333 39.0867C4.23169 35.905 2.06496 31.8514 1.18715 27.4383C0.309331 23.0252 0.759857 18.451 2.48175 14.294C4.20364 10.1369 7.11957 6.58387 10.8608 4.08407C14.602 1.58426 19.0005 0.25 23.5 0.25C29.5317 0.25637 35.3146 2.65528 39.5797 6.92036C43.8447 11.1854 46.2436 16.9683 46.25 23ZM42.75 23C42.75 19.1927 41.621 15.4709 39.5058 12.3053C37.3906 9.13963 34.3841 6.67231 30.8667 5.21532C27.3492 3.75833 23.4787 3.37712 19.7445 4.11988C16.0104 4.86265 12.5804 6.69603 9.8882 9.3882C7.19604 12.0804 5.36266 15.5104 4.61989 19.2445C3.87713 22.9786 4.25834 26.8492 5.71533 30.3667C7.17232 33.8841 9.63964 36.8906 12.8053 39.0058C15.9709 41.121 19.6927 42.25 23.5 42.25C28.6037 42.2442 33.4966 40.2142 37.1054 36.6054C40.7142 32.9966 42.7442 28.1036 42.75 23Z" fill="#38AA16"/>
</svg>
