<svg width="17" height="20" viewBox="0 0 17 20" fill="none" xmlns="http://www.w3.org/2000/svg">
<path d="M16.9779 14.0533C16.7729 11.7486 14.5812 10.636 13.6236 10.2549C13.5774 10.2367 13.5367 10.2073 13.5051 10.1694C13.4734 10.1315 13.452 10.0863 13.4427 10.038C13.4334 9.98975 13.4366 9.93994 13.4519 9.89319C13.4672 9.84645 13.4942 9.80427 13.5304 9.77056C13.8117 9.5095 14.0966 9.24486 14.3662 8.99691C15.8326 7.65027 16.6793 5.74813 16.6066 3.77049C16.5712 2.80214 16.3208 1.90292 15.712 1.3498C14.2653 0.0385313 12.4598 0.237209 11.2583 1.58107C10.8672 2.01638 10.5128 2.48257 10.1986 2.97499C9.73562 3.71169 9.34703 4.49567 9.08542 5.32495C8.6924 6.56708 8.35806 7.24696 8.06269 7.56643C7.71951 7.93796 6.86958 8.55307 6.17759 8.10445C5.48559 7.65584 5.50046 6.72165 5.51573 4.62878C5.531 2.53591 5.26698 1.72054 4.85025 1.06768C4.43353 0.414827 3.49479 -0.198293 2.31012 0.0607832C1.12545 0.319859 0.681797 1.35815 0.681797 1.35815C-0.368254 3.90679 0.454747 5.83515 1.63018 6.84165C2.80561 7.84816 3.92076 7.98922 4.71202 7.98644C4.92018 7.98644 5.11387 7.99081 5.21996 8.0226C5.54547 8.11955 5.72871 8.33015 5.8344 8.57889C5.97264 8.90433 5.91477 9.19638 5.79984 9.48685C5.21353 10.9432 4.11204 11.0564 2.21126 12.5068C0.161794 14.0692 -0.572398 17.0763 0.473233 18.6161C1.51886 20.1558 3.06159 20.1686 4.05779 19.8026C5.054 19.4366 6.05261 18.7361 6.96563 18.0745C7.87864 17.4129 8.13101 16.7445 9.18428 16.8081C10.2375 16.8717 11.1317 17.937 11.7686 18.7095C12.4056 19.4819 13.4042 19.1811 13.4042 19.1811C15.1084 18.7325 17.2407 17.0104 16.9779 14.0533ZM8.67231 10.8609C8.27045 11.4653 7.6737 11.7784 7.33694 11.5603C7.00019 11.3421 7.05283 10.6749 7.45388 10.0706C7.85494 9.46619 8.4525 9.15267 8.78925 9.37082C9.12601 9.58897 9.07336 10.2561 8.67231 10.8609Z" fill="white"/>
</svg>
