<svg width="24" height="24" viewBox="0 0 24 24" fill="none" xmlns="http://www.w3.org/2000/svg">
<path d="M12.0282 0H11.9735C5.3612 0 0.000854492 5.36035 0.000854492 11.9727V12.0273C0.000854492 18.6397 5.3612 24 11.9735 24H12.0282C18.6405 24 24.0009 18.6397 24.0009 12.0273V11.9727C24.0009 5.36035 18.6405 0 12.0282 0Z" fill="url(#paint0_linear_5799_6681)"/>
<path d="M15.7145 4.88232H8.28821C6.23657 4.88232 4.5675 6.55139 4.5675 8.60303V15.397C4.5675 17.4486 6.23657 19.1177 8.28821 19.1177H15.7145C17.7661 19.1177 19.4352 17.4486 19.4352 15.397V8.60303C19.4352 6.55139 17.7661 4.88232 15.7145 4.88232ZM5.88005 8.60303C5.88005 7.27535 6.96053 6.19487 8.28821 6.19487H15.7145C17.0422 6.19487 18.1226 7.27535 18.1226 8.60303V15.397C18.1226 16.7247 17.0422 17.8051 15.7145 17.8051H8.28821C6.96053 17.8051 5.88005 16.7247 5.88005 15.397V8.60303Z" fill="white"/>
<path d="M12.0014 15.4594C13.9093 15.4594 15.4623 13.9072 15.4623 11.9985C15.4623 10.0898 13.9101 8.5376 12.0014 8.5376C10.0927 8.5376 8.54053 10.0898 8.54053 11.9985C8.54053 13.9072 10.0927 15.4594 12.0014 15.4594ZM12.0014 9.85098C13.1862 9.85098 14.1498 10.8146 14.1498 11.9993C14.1498 13.1841 13.1862 14.1477 12.0014 14.1477C10.8167 14.1477 9.85307 13.1841 9.85307 11.9993C9.85307 10.8146 10.8167 9.85098 12.0014 9.85098Z" fill="white"/>
<path d="M15.7826 9.09789C16.2963 9.09789 16.7151 8.67999 16.7151 8.1654C16.7151 7.65081 16.2972 7.23291 15.7826 7.23291C15.268 7.23291 14.8501 7.65081 14.8501 8.1654C14.8501 8.67999 15.268 9.09789 15.7826 9.09789Z" fill="white"/>
<defs>
<linearGradient id="paint0_linear_5799_6681" x1="3.50714" y1="20.4937" x2="20.4946" y2="3.50713" gradientUnits="userSpaceOnUse">
<stop stop-color="#FAAD4F"/>
<stop offset="0.35" stop-color="#DD2A7B"/>
<stop offset="0.62" stop-color="#9537B0"/>
<stop offset="1" stop-color="#515BD4"/>
</linearGradient>
</defs>
</svg>
