<svg width="24" height="24" viewBox="0 0 24 24" fill="none" xmlns="http://www.w3.org/2000/svg">
<path d="M0.75 12.415C0.75 13.4216 0.948261 14.4183 1.33346 15.3483C1.71867 16.2782 2.28327 17.1232 2.99503 17.835C3.70679 18.5467 4.55177 19.1113 5.48173 19.4965C6.41169 19.8817 7.40842 20.08 8.415 20.08C9.42158 20.08 10.4183 19.8817 11.3483 19.4965C12.2782 19.1113 13.1232 18.5467 13.835 17.835C14.5467 17.1232 15.1113 16.2782 15.4965 15.3483C15.8817 14.4183 16.08 13.4216 16.08 12.415C16.08 11.4084 15.8817 10.4117 15.4965 9.48173C15.1113 8.55177 14.5467 7.70679 13.835 6.99503C13.1232 6.28327 12.2782 5.71867 11.3483 5.33346C10.4183 4.94826 9.42158 4.75 8.415 4.75C7.40842 4.75 6.41169 4.94826 5.48173 5.33346C4.55177 5.71867 3.70679 6.28327 2.99503 6.99503C2.28327 7.70679 1.71867 8.55177 1.33346 9.48173C0.948261 10.4117 0.75 11.4084 0.75 12.415Z" fill="#FFE500"/>
<path d="M8.415 4.75C6.89901 4.75 5.41706 5.19954 4.15656 6.04179C2.89605 6.88403 1.91361 8.08114 1.33347 9.48173C0.753321 10.8823 0.601529 12.4235 0.897284 13.9104C1.19304 15.3972 1.92306 16.763 2.99503 17.835C4.067 18.9069 5.43277 19.637 6.91964 19.9327C8.4065 20.2285 9.94768 20.0767 11.3483 19.4965C12.7489 18.9164 13.946 17.9339 14.7882 16.6734C15.6305 15.4129 16.08 13.931 16.08 12.415C16.08 10.3821 15.2724 8.43249 13.835 6.99503C12.3975 5.55756 10.4479 4.75 8.415 4.75ZM8.415 18.93C7.03053 18.93 5.67716 18.5195 4.52601 17.7503C3.37487 16.9811 2.47766 15.8879 1.94785 14.6088C1.41803 13.3297 1.27941 11.9222 1.54951 10.5644C1.8196 9.2065 2.48629 7.95922 3.46526 6.98025C4.44422 6.00129 5.6915 5.3346 7.04937 5.0645C8.40724 4.79441 9.8147 4.93303 11.0938 5.46284C12.3729 5.99266 13.4661 6.88986 14.2353 8.04101C15.0045 9.19215 15.415 10.5455 15.415 11.93C15.415 13.7865 14.6775 15.567 13.3648 16.8797C12.052 18.1925 10.2715 18.93 8.415 18.93Z" fill="#EBCB00"/>
<path d="M6.11328 6.28203C6.11328 6.43453 6.3556 6.58078 6.78694 6.68862C7.21827 6.79645 7.80328 6.85703 8.41328 6.85703C9.02328 6.85703 9.60829 6.79645 10.0396 6.68862C10.471 6.58078 10.7133 6.43453 10.7133 6.28203C10.7133 6.12953 10.471 5.98328 10.0396 5.87544C9.60829 5.76761 9.02328 5.70703 8.41328 5.70703C7.80328 5.70703 7.21827 5.76761 6.78694 5.87544C6.3556 5.98328 6.11328 6.12953 6.11328 6.28203Z" fill="#FFF48C"/>
<path d="M0.75 12.415C0.75 13.4216 0.948261 14.4183 1.33346 15.3483C1.71867 16.2782 2.28327 17.1232 2.99503 17.835C3.70679 18.5467 4.55177 19.1113 5.48173 19.4965C6.41169 19.8817 7.40842 20.08 8.415 20.08C9.42158 20.08 10.4183 19.8817 11.3483 19.4965C12.2782 19.1113 13.1232 18.5467 13.835 17.835C14.5467 17.1232 15.1113 16.2782 15.4965 15.3483C15.8817 14.4183 16.08 13.4216 16.08 12.415C16.08 11.4084 15.8817 10.4117 15.4965 9.48173C15.1113 8.55177 14.5467 7.70679 13.835 6.99503C13.1232 6.28327 12.2782 5.71867 11.3483 5.33346C10.4183 4.94826 9.42158 4.75 8.415 4.75C7.40842 4.75 6.41169 4.94826 5.48173 5.33346C4.55177 5.71867 3.70679 6.28327 2.99503 6.99503C2.28327 7.70679 1.71867 8.55177 1.33346 9.48173C0.948261 10.4117 0.75 11.4084 0.75 12.415V12.415Z" stroke="#45413C" stroke-width="0.5" stroke-linecap="round" stroke-linejoin="round"/>
<path d="M8.41516 14.8148C8.51672 14.7571 8.63017 14.7234 8.74679 14.7163C8.86341 14.7092 8.98011 14.7289 9.08793 14.7739C9.19575 14.8189 9.29183 14.888 9.3688 14.9759C9.44576 15.0638 9.50158 15.1681 9.53195 15.281C9.56233 15.3938 9.56645 15.5121 9.54402 15.6267C9.52159 15.7414 9.47319 15.8494 9.40254 15.9424C9.33189 16.0355 9.24086 16.1111 9.13645 16.1635C9.03203 16.216 8.91699 16.2438 8.80016 16.2448C8.99301 16.2604 9.17294 16.348 9.30413 16.4902C9.43532 16.6324 9.50816 16.8188 9.50816 17.0123C9.50816 17.2058 9.43532 17.3922 9.30413 17.5344C9.17294 17.6766 8.99301 17.7642 8.80016 17.7798C8.66322 17.7794 8.52877 17.7432 8.41016 17.6748" stroke="#45413C" stroke-width="0.5" stroke-linecap="round" stroke-linejoin="round"/>
<path d="M2.85938 14.3289C2.85938 14.6489 3.28438 14.9039 3.81438 14.9039C4.34438 14.9039 4.77438 14.6489 4.77438 14.3289C4.77438 14.0089 4.34438 13.7539 3.81438 13.7539C3.28438 13.7539 2.85938 13.9989 2.85938 14.3289Z" fill="#FFAA54"/>
<path d="M13.9697 14.3289C13.9697 14.6489 13.5397 14.9039 13.0147 14.9039C12.4897 14.9039 12.0547 14.6489 12.0547 14.3289C12.0547 14.0089 12.4997 13.7539 12.9997 13.7539C13.4997 13.7539 13.9697 13.9989 13.9697 14.3289Z" fill="#FFAA54"/>
<path d="M4.77391 12.2248C4.77391 12.301 4.75133 12.3754 4.70902 12.4387C4.66672 12.5021 4.60659 12.5514 4.53624 12.5805C4.46589 12.6097 4.38848 12.6173 4.3138 12.6024C4.23911 12.5876 4.17051 12.5509 4.11667 12.4971C4.06283 12.4432 4.02616 12.3746 4.0113 12.3C3.99645 12.2253 4.00407 12.1479 4.03321 12.0775C4.06235 12.0072 4.1117 11.947 4.17501 11.9047C4.23832 11.8624 4.31276 11.8398 4.38891 11.8398C4.49101 11.8398 4.58894 11.8804 4.66114 11.9526C4.73334 12.0248 4.77391 12.1227 4.77391 12.2248Z" fill="#45413C" stroke="#45413C" stroke-width="0.5" stroke-linecap="round" stroke-linejoin="round"/>
<path d="M12.0547 12.2249C12.0547 12.301 12.0773 12.3755 12.1196 12.4388C12.1619 12.5021 12.222 12.5514 12.2924 12.5806C12.3627 12.6097 12.4401 12.6173 12.5148 12.6025C12.5895 12.5876 12.6581 12.551 12.712 12.4971C12.7658 12.4433 12.8025 12.3747 12.8173 12.3C12.8322 12.2253 12.8246 12.1479 12.7954 12.0775C12.7663 12.0072 12.7169 11.9471 12.6536 11.9048C12.5903 11.8625 12.5159 11.8399 12.4397 11.8399C12.389 11.8392 12.3386 11.8487 12.2916 11.8678C12.2446 11.8869 12.2019 11.9153 12.166 11.9511C12.1301 11.987 12.1018 12.0297 12.0827 12.0768C12.0635 12.1238 12.054 12.1741 12.0547 12.2249Z" fill="#45413C" stroke="#45413C" stroke-width="0.5" stroke-linecap="round" stroke-linejoin="round"/>
<path d="M18.939 8.4997C18.94 8.66329 18.8924 8.82349 18.8021 8.95992C18.7118 9.09635 18.583 9.20287 18.4321 9.26593C18.2811 9.32899 18.1148 9.34575 17.9543 9.31408C17.7938 9.2824 17.6464 9.20373 17.5307 9.08805C17.415 8.97237 17.3363 8.82491 17.3047 8.66441C17.273 8.50392 17.2898 8.33762 17.3528 8.18667C17.4159 8.03572 17.5224 7.90693 17.6588 7.81665C17.7953 7.72638 17.9555 7.67871 18.119 7.6797C18.3361 7.68101 18.5439 7.76783 18.6974 7.92132C18.8509 8.07482 18.9377 8.28263 18.939 8.4997Z" stroke="#48CF3E" stroke-width="0.5" stroke-linecap="round" stroke-linejoin="round"/>
<path d="M23.0445 7.65314C23.0445 7.81652 22.996 7.97622 22.9051 8.112C22.8143 8.24778 22.6851 8.35351 22.5341 8.41581C22.383 8.4781 22.2169 8.49414 22.0567 8.4619C21.8966 8.42966 21.7496 8.35059 21.6344 8.23471C21.5192 8.11883 21.441 7.97137 21.4098 7.811C21.3785 7.65064 21.3956 7.48461 21.4588 7.33395C21.522 7.18329 21.6285 7.05479 21.7648 6.96474C21.9012 6.87469 22.0612 6.82715 22.2245 6.82814C22.4425 6.82946 22.651 6.91696 22.8047 7.07154C22.9583 7.22611 23.0445 7.4352 23.0445 7.65314V7.65314Z" stroke="#48CF3E" stroke-width="0.5" stroke-linecap="round" stroke-linejoin="round"/>
<path d="M18.9414 8.47281V4.77781L23.0464 3.13281V7.64781" stroke="#48CF3E" stroke-width="0.5" stroke-linecap="round" stroke-linejoin="round"/>
<path d="M18.0536 20.2738C18.0546 20.4344 18.0078 20.5917 17.9192 20.7256C17.8305 20.8596 17.7041 20.9642 17.5559 21.0261C17.4077 21.0881 17.2444 21.1045 17.0868 21.0734C16.9292 21.0423 16.7844 20.9651 16.6708 20.8515C16.5573 20.7379 16.48 20.5931 16.4489 20.4356C16.4178 20.278 16.4343 20.1147 16.4962 19.9665C16.5581 19.8183 16.6627 19.6918 16.7967 19.6032C16.9307 19.5146 17.088 19.4678 17.2486 19.4688C17.4617 19.4701 17.6657 19.5553 17.8164 19.706C17.967 19.8567 18.0523 20.0607 18.0536 20.2738V20.2738Z" stroke="#FF4064" stroke-width="0.5" stroke-linecap="round" stroke-linejoin="round"/>
<path d="M18.0547 20.2717V16.6367L19.2647 17.4467" stroke="#FF4064" stroke-width="0.5" stroke-linecap="round" stroke-linejoin="round"/>
<path d="M13.5508 3.67641C13.5507 3.77421 13.5219 3.86982 13.4679 3.95142C13.414 4.03301 13.3374 4.09701 13.2475 4.13548C13.1575 4.17395 13.0583 4.1852 12.9621 4.16785C12.8658 4.1505 12.7768 4.1053 12.706 4.03785C12.6351 3.9704 12.5856 3.88367 12.5636 3.78838C12.5416 3.69309 12.548 3.59344 12.582 3.50175C12.6161 3.41007 12.6763 3.33038 12.7551 3.27255C12.834 3.21472 12.9281 3.1813 13.0258 3.17641C13.0935 3.17302 13.1612 3.18344 13.2248 3.20704C13.2884 3.23065 13.3465 3.26694 13.3956 3.31371C13.4447 3.36048 13.4838 3.41676 13.5105 3.47911C13.5372 3.54146 13.5509 3.60859 13.5508 3.67641Z" stroke="#FFB700" stroke-width="0.5" stroke-linecap="round" stroke-linejoin="round"/>
<path d="M13.5508 3.67812V1.32812L14.3358 1.84812" stroke="#FFB700" stroke-width="0.5" stroke-linecap="round" stroke-linejoin="round"/>
<path d="M19.4062 11.915V11.625" stroke="#00AED9" stroke-width="0.5" stroke-linecap="round" stroke-linejoin="round"/>
<path d="M20.0156 12.1648L20.2156 11.9648" stroke="#00AED9" stroke-width="0.5" stroke-linecap="round" stroke-linejoin="round"/>
<path d="M20.2656 12.7734H20.5556" stroke="#00AED9" stroke-width="0.5" stroke-linecap="round" stroke-linejoin="round"/>
<path d="M20.0156 13.3828L20.2156 13.5878" stroke="#00AED9" stroke-width="0.5" stroke-linecap="round" stroke-linejoin="round"/>
<path d="M19.4062 13.6367V13.9217" stroke="#00AED9" stroke-width="0.5" stroke-linecap="round" stroke-linejoin="round"/>
<path d="M18.7948 13.3828L18.5898 13.5878" stroke="#00AED9" stroke-width="0.5" stroke-linecap="round" stroke-linejoin="round"/>
<path d="M18.5389 12.7734H18.2539" stroke="#00AED9" stroke-width="0.5" stroke-linecap="round" stroke-linejoin="round"/>
<path d="M18.7948 12.1648L18.5898 11.9648" stroke="#00AED9" stroke-width="0.5" stroke-linecap="round" stroke-linejoin="round"/>
<path d="M22.2344 15.9987V14.4688" stroke="#00AED9" stroke-width="0.5" stroke-linecap="round" stroke-linejoin="round"/>
<path d="M21.4688 15.2344H23.0037" stroke="#00AED9" stroke-width="0.5" stroke-linecap="round" stroke-linejoin="round"/>
<path d="M20.5547 2.09312V1.32812" stroke="#00AED9" stroke-width="0.5" stroke-linecap="round" stroke-linejoin="round"/>
<path d="M20.1719 1.71484H20.9369" stroke="#00AED9" stroke-width="0.5" stroke-linecap="round" stroke-linejoin="round"/>
<path d="M21.0742 19.6294V18.8594" stroke="#00AED9" stroke-width="0.5" stroke-linecap="round" stroke-linejoin="round"/>
<path d="M20.6914 19.2422H21.4564" stroke="#00AED9" stroke-width="0.5" stroke-linecap="round" stroke-linejoin="round"/>
<path d="M15.6133 4.68406V3.91406" stroke="#00AED9" stroke-width="0.5" stroke-linecap="round" stroke-linejoin="round"/>
<path d="M15.2305 4.29688H15.9955" stroke="#00AED9" stroke-width="0.5" stroke-linecap="round" stroke-linejoin="round"/>
</svg>
