<svg width="20" height="20" viewBox="0 0 20 20" fill="none" xmlns="http://www.w3.org/2000/svg">
<path d="M18.3324 2.84297L18.2324 1.79297L17.2324 2.1263C15.5185 2.72176 13.6884 2.90448 11.8907 2.65964C10.0017 2.36648 8.06813 2.62698 6.32403 3.40964C5.39943 3.80334 4.58799 4.42206 3.9636 5.20948C3.3392 5.99689 2.92167 6.92798 2.74903 7.91797C2.52518 9.19688 2.63717 10.512 3.07403 11.7346C3.35533 11.0997 3.68404 10.4869 4.05737 9.9013C4.9042 8.65533 6.0776 7.66645 7.44903 7.04297C8.77023 6.43974 10.2144 6.15434 11.6657 6.20964C10.2842 6.42136 8.96175 6.91798 7.78237 7.66797C7.2137 8.02549 6.69285 8.45393 6.23237 8.94297C5.79218 9.43198 5.40399 9.9654 5.07403 10.5346C4.45459 11.7247 4.01375 12.9995 3.7657 14.318C3.49837 15.6407 3.35331 16.9853 3.33237 18.3346H4.99903C5.07823 17.1246 5.24252 15.9216 5.4907 14.7346C6.64689 15.359 7.94349 15.6774 9.25737 15.6596C10.4828 15.6588 11.6956 15.4123 12.824 14.9346C19.1657 12.2263 18.3324 3.21797 18.3324 2.84297Z" fill="#46D51B"/>
</svg>
