<svg width="23" height="28" viewBox="0 0 23 28" fill="none" xmlns="http://www.w3.org/2000/svg">
<g clip-path="url(#clip0_10541_95743)">
<path d="M17.8039 7.47893C15.6216 7.96281 13.9177 8.83639 12.8331 9.51837C13.8194 8.70649 15.1825 7.36527 16.3162 5.45574C19.4127 0.24024 12.7216 -1.62058 11.4994 1.58146C10.0904 -1.67904 3.64509 0.340914 6.68262 5.45249C7.81637 7.36527 9.17949 8.70324 10.1658 9.51512C9.08119 8.83314 7.37729 7.95956 5.19498 7.47568C-0.64416 6.18318 -0.608116 12.8795 2.9537 13.2108C0.253665 15.3476 4.094 21.086 8.1506 16.5655C9.95608 14.5552 10.8474 12.4833 11.2406 11.3532C11.1881 11.8696 11.1259 12.4054 11.08 12.964C11.0243 13.5842 10.9686 14.224 10.9129 14.8768C10.8768 15.5295 10.8408 16.1952 10.8048 16.8577C10.7556 17.5235 10.772 18.1892 10.7589 18.842C10.7556 19.17 10.7523 19.4947 10.749 19.8162C10.7458 20.1377 10.7392 20.456 10.7589 20.7677C10.7851 21.3912 10.808 21.9953 10.831 22.5668C10.8572 23.1384 10.8637 23.6807 10.9194 24.1776C11.0997 26.1683 11.2209 27.4966 11.2209 27.4966C11.2209 27.5031 11.2242 27.5128 11.2242 27.5193C11.2635 27.8246 11.5453 28.0356 11.8533 27.9967C12.1613 27.9577 12.3743 27.6784 12.335 27.3732L12.3317 27.3472C12.3317 27.3472 12.158 26.0449 11.8992 24.0867C11.8205 23.5996 11.7976 23.0637 11.7452 22.5019C11.6993 21.9401 11.6502 21.3458 11.5977 20.7288C11.565 20.4202 11.5584 20.1085 11.5486 19.7902C11.5387 19.472 11.5289 19.1537 11.5158 18.829C11.4994 18.1827 11.4568 17.5235 11.4798 16.8642C11.4863 16.205 11.4961 15.5457 11.5027 14.8995C11.5322 14.25 11.5617 13.6102 11.5879 12.9932C11.6108 12.3762 11.66 11.7754 11.6895 11.2103C11.6895 11.1941 11.6927 11.1811 11.6927 11.1649C12.0466 12.2463 12.9379 14.4351 14.8417 16.559C18.8983 21.0795 22.7386 15.3411 20.0386 13.2043C23.6102 12.8795 23.643 6.18318 17.8039 7.47893Z" fill="#36C759"/>
</g>
<defs>
<clipPath id="clip0_10541_95743">
<rect width="22" height="28" fill="white" transform="translate(0.5)"/>
</clipPath>
</defs>
</svg>
