<svg width="16" height="16" viewBox="0 0 16 16" fill="none" xmlns="http://www.w3.org/2000/svg">
<path d="M8 6C8.55228 6 9 5.55228 9 5C9 4.44772 8.55228 4 8 4C7.44772 4 7 4.44772 7 5C7 5.55228 7.44772 6 8 6Z" fill="#343330"/>
<path d="M11.5 5C11.5 8.5 8 10.5 8 10.5C8 10.5 4.5 8.5 4.5 5C4.5 4.07174 4.86875 3.1815 5.52513 2.52513C6.1815 1.86875 7.07174 1.5 8 1.5C8.92826 1.5 9.8185 1.86875 10.4749 2.52513C11.1313 3.1815 11.5 4.07174 11.5 5Z" stroke="#343330" stroke-width="1.5" stroke-linecap="round" stroke-linejoin="round"/>
<path d="M12.5 9.69629C13.7325 10.1513 14.5 10.7913 14.5 11.5C14.5 12.8807 11.59 14 8 14C4.41 14 1.5 12.8807 1.5 11.5C1.5 10.7913 2.2675 10.1513 3.5 9.69629" stroke="#343330" stroke-width="1.5" stroke-linecap="round" stroke-linejoin="round"/>
</svg>
