<svg width="24" height="24" viewBox="0 0 24 24" fill="none" xmlns="http://www.w3.org/2000/svg">
<path d="M0 4C0 1.79086 1.79086 0 4 0H20C22.2091 0 24 1.79086 24 4V20C24 22.2091 22.2091 24 20 24H4C1.79086 24 0 22.2091 0 20V4Z" fill="#0858FA"/>
<path d="M6 6C5.20435 6 4.44129 6.31607 3.87868 6.87868C3.31607 7.44129 3 8.20435 3 9V15C3 15.7956 3.31607 16.5587 3.87868 17.1213C4.44129 17.6839 5.20435 18 6 18H12C12.7956 18 13.5587 17.6839 14.1213 17.1213C14.6839 16.5587 15 15.7956 15 15V9C15 8.20435 14.6839 7.44129 14.1213 6.87868C13.5587 6.31607 12.7956 6 12 6H6ZM21 8.25C21 8.11072 20.9612 7.97418 20.888 7.8557C20.8148 7.73722 20.71 7.64147 20.5854 7.57918C20.4608 7.51689 20.3214 7.49052 20.1826 7.50303C20.0439 7.51554 19.9114 7.56643 19.8 7.65L16.8 9.9C16.7069 9.96986 16.6313 10.0604 16.5792 10.1646C16.5271 10.2687 16.5 10.3836 16.5 10.5V13.5C16.5 13.6164 16.5271 13.7313 16.5792 13.8354C16.6313 13.9396 16.7069 14.0301 16.8 14.1L19.8 16.35C19.9114 16.4336 20.0439 16.4845 20.1826 16.497C20.3214 16.5095 20.4608 16.4831 20.5854 16.4208C20.71 16.3585 20.8148 16.2628 20.888 16.1443C20.9612 16.0258 21 15.8893 21 15.75V8.25Z" fill="#F3F4F6"/>
</svg>
