<svg width="42" height="42" viewBox="0 0 42 42" fill="none" xmlns="http://www.w3.org/2000/svg">
<path d="M0 8C0 3.58172 3.58172 0 8 0H28C32.4183 0 36 3.58172 36 8V28C36 32.4183 32.4183 36 28 36H8C3.58172 36 0 32.4183 0 28V8Z" fill="#0858FA"/>
<path d="M10.5 10C9.43913 10 8.42172 10.4214 7.67157 11.1716C6.92143 11.9217 6.5 12.9391 6.5 14V22C6.5 23.0609 6.92143 24.0783 7.67157 24.8284C8.42172 25.5786 9.43913 26 10.5 26H18.5C19.5609 26 20.5783 25.5786 21.3284 24.8284C22.0786 24.0783 22.5 23.0609 22.5 22V14C22.5 12.9391 22.0786 11.9217 21.3284 11.1716C20.5783 10.4214 19.5609 10 18.5 10H10.5ZM30.5 13C30.5 12.8143 30.4483 12.6322 30.3507 12.4743C30.253 12.3163 30.1133 12.1886 29.9472 12.1056C29.7811 12.0225 29.5952 11.9874 29.4102 12.004C29.2252 12.0207 29.0486 12.0886 28.9 12.2L24.9 15.2C24.7758 15.2931 24.675 15.4139 24.6056 15.5528C24.5361 15.6916 24.5 15.8448 24.5 16V20C24.5 20.1552 24.5361 20.3084 24.6056 20.4472C24.675 20.5861 24.7758 20.7069 24.9 20.8L28.9 23.8C29.0486 23.9114 29.2252 23.9793 29.4102 23.996C29.5952 24.0126 29.7811 23.9775 29.9472 23.8944C30.1133 23.8114 30.253 23.6837 30.3507 23.5257C30.4483 23.3678 30.5 23.1857 30.5 23V13Z" fill="#F3F4F6"/>
<path d="M32 23.875C30.393 23.875 28.8221 24.3515 27.486 25.2443C26.1498 26.1371 25.1084 27.406 24.4935 28.8907C23.8785 30.3753 23.7176 32.009 24.0311 33.5851C24.3446 35.1612 25.1185 36.6089 26.2548 37.7452C27.3911 38.8815 28.8388 39.6554 30.4149 39.9689C31.991 40.2824 33.6247 40.1215 35.1093 39.5065C36.594 38.8916 37.8629 37.8502 38.7557 36.514C39.6485 35.1779 40.125 33.607 40.125 32C40.1227 29.8458 39.266 27.7805 37.7427 26.2573C36.2195 24.734 34.1542 23.8773 32 23.875ZM35.5672 30.5672L31.1922 34.9422C31.1341 35.0003 31.0652 35.0464 30.9893 35.0779C30.9135 35.1093 30.8321 35.1255 30.75 35.1255C30.6679 35.1255 30.5865 35.1093 30.5107 35.0779C30.4348 35.0464 30.3659 35.0003 30.3078 34.9422L28.4328 33.0672C28.3155 32.9499 28.2497 32.7909 28.2497 32.625C28.2497 32.4591 28.3155 32.3001 28.4328 32.1828C28.5501 32.0655 28.7092 31.9997 28.875 31.9997C29.0409 31.9997 29.1999 32.0655 29.3172 32.1828L30.75 33.6164L34.6828 29.6828C34.7409 29.6247 34.8098 29.5787 34.8857 29.5473C34.9616 29.5158 35.0429 29.4997 35.125 29.4997C35.2071 29.4997 35.2884 29.5158 35.3643 29.5473C35.4402 29.5787 35.5091 29.6247 35.5672 29.6828C35.6253 29.7409 35.6713 29.8098 35.7027 29.8857C35.7342 29.9616 35.7504 30.0429 35.7504 30.125C35.7504 30.2071 35.7342 30.2884 35.7027 30.3643C35.6713 30.4402 35.6253 30.5091 35.5672 30.5672Z" fill="#66E73F"/>
</svg>
