<svg width="42" height="44" viewBox="0 0 42 44" fill="none" xmlns="http://www.w3.org/2000/svg">
<path d="M0 8C0 3.58172 3.58172 0 8 0H28C32.4183 0 36 3.58172 36 8V28C36 32.4183 32.4183 36 28 36H8C3.58172 36 0 32.4183 0 28V8Z" fill="#0858FA"/>
<path d="M10.5 10C9.43913 10 8.42172 10.4214 7.67157 11.1716C6.92143 11.9217 6.5 12.9391 6.5 14V22C6.5 23.0609 6.92143 24.0783 7.67157 24.8284C8.42172 25.5786 9.43913 26 10.5 26H18.5C19.5609 26 20.5783 25.5786 21.3284 24.8284C22.0786 24.0783 22.5 23.0609 22.5 22V14C22.5 12.9391 22.0786 11.9217 21.3284 11.1716C20.5783 10.4214 19.5609 10 18.5 10H10.5ZM30.5 13C30.5 12.8143 30.4483 12.6322 30.3507 12.4743C30.253 12.3163 30.1133 12.1886 29.9472 12.1056C29.7811 12.0225 29.5952 11.9874 29.4102 12.004C29.2252 12.0207 29.0486 12.0886 28.9 12.2L24.9 15.2C24.7758 15.2931 24.675 15.4139 24.6056 15.5528C24.5361 15.6916 24.5 15.8448 24.5 16V20C24.5 20.1552 24.5361 20.3084 24.6056 20.4472C24.675 20.5861 24.7758 20.7069 24.9 20.8L28.9 23.8C29.0486 23.9114 29.2252 23.9793 29.4102 23.996C29.5952 24.0126 29.7811 23.9775 29.9472 23.8944C30.1133 23.8114 30.253 23.6837 30.3507 23.5257C30.4483 23.3678 30.5 23.1857 30.5 23V13Z" fill="#F3F4F6"/>
<path d="M26.8175 26.9425L24.3175 29.4425C24.2003 29.5598 24.0412 29.6257 23.8753 29.6257C23.7095 29.6257 23.5504 29.5598 23.4332 29.4425C23.3159 29.3253 23.25 29.1662 23.25 29.0003C23.25 28.8345 23.3159 28.6754 23.4332 28.5582L25.9332 26.0582C26.0504 25.9409 26.2095 25.875 26.3753 25.875C26.5412 25.875 26.7003 25.9409 26.8175 26.0582C26.9348 26.1754 27.0007 26.3345 27.0007 26.5003C27.0007 26.6662 26.9348 26.8253 26.8175 26.9425ZM40.5675 28.5582L38.0675 26.0582C37.9503 25.9409 37.7912 25.875 37.6253 25.875C37.4595 25.875 37.3004 25.9409 37.1832 26.0582C37.0659 26.1754 37 26.3345 37 26.5003C37 26.6662 37.0659 26.8253 37.1832 26.9425L39.6832 29.4425C39.7412 29.5006 39.8102 29.5467 39.886 29.5781C39.9619 29.6095 40.0432 29.6257 40.1253 29.6257C40.2075 29.6257 40.2888 29.6095 40.3647 29.5781C40.4405 29.5467 40.5095 29.5006 40.5675 29.4425C40.6256 29.3845 40.6717 29.3155 40.7031 29.2397C40.7345 29.1638 40.7507 29.0825 40.7507 29.0003C40.7507 28.9182 40.7345 28.8369 40.7031 28.761C40.6717 28.6852 40.6256 28.6162 40.5675 28.5582ZM39.5003 34.6253C39.5003 36.1087 39.0605 37.5588 38.2364 38.7921C37.4123 40.0255 36.2409 40.9868 34.8705 41.5544C33.5 42.1221 31.992 42.2706 30.5372 41.9812C29.0823 41.6918 27.7459 40.9775 26.697 39.9286C25.6482 38.8798 24.9338 37.5434 24.6445 36.0885C24.3551 34.6337 24.5036 33.1257 25.0713 31.7552C25.6389 30.3848 26.6002 29.2134 27.8336 28.3893C29.0669 27.5652 30.517 27.1253 32.0003 27.1253C33.9888 27.1276 35.8951 27.9185 37.3011 29.3246C38.7072 30.7306 39.4981 32.6369 39.5003 34.6253ZM37.0003 34.6253C37.0003 34.4596 36.9345 34.3006 36.8173 34.1834C36.7001 34.0662 36.5411 34.0003 36.3753 34.0003H32.6253V30.2503C32.6253 30.0846 32.5595 29.9256 32.4423 29.8084C32.3251 29.6912 32.1661 29.6253 32.0003 29.6253C31.8346 29.6253 31.6756 29.6912 31.5584 29.8084C31.4412 29.9256 31.3753 30.0846 31.3753 30.2503V34.6253C31.3753 34.7911 31.4412 34.9501 31.5584 35.0673C31.6756 35.1845 31.8346 35.2503 32.0003 35.2503H36.3753C36.5411 35.2503 36.7001 35.1845 36.8173 35.0673C36.9345 34.9501 37.0003 34.7911 37.0003 34.6253Z" fill="#FF8F34"/>
</svg>
