<svg width="20" height="20" viewBox="0 0 20 20" fill="none" xmlns="http://www.w3.org/2000/svg">
<path d="M18.1633 4.33824L15.6633 1.83824C15.5762 1.75084 15.4727 1.68149 15.3587 1.63417C15.2448 1.58686 15.1226 1.5625 14.9992 1.5625C14.8758 1.5625 14.7537 1.58686 14.6397 1.63417C14.5257 1.68149 14.4223 1.75084 14.3352 1.83824L6.83516 9.33824C6.65996 9.51446 6.56189 9.75303 6.5625 10.0015V12.5015C6.5625 12.7502 6.66127 12.9886 6.83709 13.1644C7.0129 13.3402 7.25136 13.439 7.5 13.439H10C10.1232 13.4391 10.2451 13.4149 10.3589 13.3679C10.4727 13.3208 10.5762 13.2518 10.6633 13.1648L18.1633 5.6648C18.2504 5.57773 18.3196 5.47434 18.3668 5.36053C18.414 5.24672 18.4382 5.12472 18.4382 5.00152C18.4382 4.87832 18.414 4.75632 18.3668 4.64251C18.3196 4.5287 18.2504 4.42531 18.1633 4.33824ZM15 3.82965L16.1719 5.00152L15.3125 5.8609L14.1406 4.68902L15 3.82965ZM9.60938 11.564H8.4375V10.3921L12.8125 6.01715L13.9844 7.18902L9.60938 11.564ZM17.8125 10.9836V16.2515C17.8125 16.6659 17.6479 17.0633 17.3549 17.3564C17.0618 17.6494 16.6644 17.814 16.25 17.814H3.75C3.3356 17.814 2.93817 17.6494 2.64515 17.3564C2.35212 17.0633 2.1875 16.6659 2.1875 16.2515V3.75152C2.1875 3.33712 2.35212 2.93969 2.64515 2.64667C2.93817 2.35364 3.3356 2.18902 3.75 2.18902H9.01797C9.26661 2.18902 9.50507 2.28779 9.68088 2.46361C9.8567 2.63942 9.95547 2.87788 9.95547 3.12652C9.95547 3.37516 9.8567 3.61362 9.68088 3.78943C9.50507 3.96525 9.26661 4.06402 9.01797 4.06402H4.0625V15.939H15.9375V10.9836C15.9375 10.7349 16.0363 10.4965 16.2121 10.3206C16.3879 10.1448 16.6264 10.0461 16.875 10.0461C17.1236 10.0461 17.3621 10.1448 17.5379 10.3206C17.7137 10.4965 17.8125 10.7349 17.8125 10.9836Z" fill="white"/>
</svg>
