<svg width="24" height="24" viewBox="0 0 24 24" fill="none" xmlns="http://www.w3.org/2000/svg">
<path d="M20.9994 16.4763V19.1861C21.0005 19.4376 20.9488 19.6866 20.8479 19.9171C20.7469 20.1476 20.5988 20.3545 20.413 20.5245C20.2273 20.6946 20.008 20.8241 19.7693 20.9047C19.5305 20.9853 19.2775 21.0152 19.0265 20.9925C16.2415 20.6905 13.5664 19.7408 11.216 18.2196C9.02929 16.8328 7.17534 14.9825 5.7858 12.8001C4.25627 10.4438 3.30442 7.76095 3.00735 4.96903C2.98473 4.71926 3.01447 4.46752 3.09468 4.22984C3.17489 3.99217 3.30381 3.77376 3.47323 3.58854C3.64265 3.40331 3.84885 3.25532 4.07872 3.15399C4.30858 3.05266 4.55707 3.0002 4.80837 2.99997H7.52347C7.96269 2.99565 8.3885 3.15088 8.72152 3.43671C9.05455 3.72255 9.27207 4.11949 9.33354 4.55354C9.44814 5.42071 9.66067 6.27216 9.96707 7.09165C10.0888 7.41494 10.1152 7.7663 10.043 8.10408C9.97082 8.44186 9.80313 8.75191 9.5598 8.99749L8.41041 10.1446C9.69877 12.4059 11.5748 14.2782 13.8406 15.5641L14.99 14.4169C15.2361 14.1741 15.5467 14.0067 15.8852 13.9347C16.2236 13.8627 16.5757 13.889 16.8996 14.0105C17.7207 14.3163 18.5739 14.5284 19.4428 14.6428C19.8824 14.7047 20.2839 14.9257 20.5709 15.2637C20.858 15.6018 21.0105 16.0334 20.9994 16.4763Z" stroke="#45484A" stroke-width="2" stroke-linecap="round" stroke-linejoin="round"/>
</svg>
