<svg width="20" height="20" viewBox="0 0 20 20" fill="none" xmlns="http://www.w3.org/2000/svg">
<path d="M10.0002 14.7727L14.2752 17.4016C14.3861 17.4689 14.5145 17.5019 14.6441 17.4963C14.7738 17.4907 14.8988 17.4467 15.0035 17.3701C15.1082 17.2934 15.1878 17.1874 15.2323 17.0655C15.2767 16.9436 15.2841 16.8113 15.2533 16.6852L14.0908 11.7797L17.8955 8.49848C17.9925 8.41331 18.0625 8.30158 18.0967 8.17711C18.1309 8.05264 18.128 7.92087 18.0882 7.79806C18.0484 7.67526 17.9735 7.56679 17.8727 7.48607C17.772 7.40534 17.6498 7.35588 17.5213 7.34379L12.5283 6.93754L10.6049 2.28129C10.5559 2.16117 10.4721 2.05837 10.3645 1.98601C10.2568 1.91365 10.1299 1.875 10.0002 1.875C9.87045 1.875 9.74364 1.91365 9.63594 1.98601C9.52825 2.05837 9.44455 2.16117 9.39551 2.28129L7.47207 6.93754L2.4791 7.34379C2.3497 7.35516 2.22652 7.4044 2.12494 7.48537C2.02336 7.56634 1.9479 7.67544 1.90797 7.79905C1.86804 7.92267 1.86543 8.0553 1.90045 8.18039C1.93547 8.30548 2.00658 8.41748 2.10489 8.50239L5.90957 11.7836L4.74707 16.6852C4.71634 16.8113 4.72367 16.9436 4.76813 17.0655C4.8126 17.1874 4.8922 17.2934 4.99688 17.3701C5.10156 17.4467 5.22662 17.4907 5.35626 17.4963C5.48589 17.5019 5.61428 17.4689 5.7252 17.4016L10.0002 14.7727Z" stroke="#343330" stroke-width="1.25" stroke-linecap="round" stroke-linejoin="round"/>
</svg>
