<svg width="20" height="20" viewBox="0 0 20 20" fill="none" xmlns="http://www.w3.org/2000/svg">
<path d="M6.5625 12.5C8.80616 12.5 10.625 10.6812 10.625 8.4375C10.625 6.19384 8.80616 4.375 6.5625 4.375C4.31884 4.375 2.5 6.19384 2.5 8.4375C2.5 10.6812 4.31884 12.5 6.5625 12.5Z" stroke="#343330" stroke-width="1.25" stroke-linecap="round" stroke-linejoin="round"/>
<path d="M0.798828 15.6266C1.42312 14.6668 2.27726 13.878 3.28372 13.332C4.29018 12.786 5.41708 12.5 6.56211 12.5C7.70714 12.5 8.83404 12.786 9.8405 13.332C10.847 13.878 11.7011 14.6668 12.3254 15.6266" stroke="#343330" stroke-width="1.25" stroke-linecap="round" stroke-linejoin="round"/>
<path d="M13.4375 12.5C14.5825 12.4993 15.7095 12.7849 16.716 13.3306C17.7225 13.8764 18.5767 14.6651 19.2008 15.625" stroke="#343330" stroke-width="1.25" stroke-linecap="round" stroke-linejoin="round"/>
<path d="M11.9287 4.66406C12.4844 4.44242 13.0822 4.34625 13.6794 4.38244C14.2766 4.41862 14.8584 4.58626 15.3833 4.87338C15.9082 5.16051 16.3632 5.56002 16.7158 6.04337C17.0684 6.52672 17.3099 7.08198 17.423 7.66948C17.5361 8.25698 17.518 8.86221 17.3701 9.44192C17.2222 10.0216 16.948 10.5615 16.5673 11.023C16.1865 11.4845 15.7085 11.8562 15.1674 12.1115C14.6264 12.3668 14.0356 12.4995 13.4373 12.5" stroke="#343330" stroke-width="1.25" stroke-linecap="round" stroke-linejoin="round"/>
</svg>
