<svg width="20" height="20" viewBox="0 0 20 20" fill="none" xmlns="http://www.w3.org/2000/svg">
<path d="M4.81753 2.94253L2.31754 5.44254C2.20026 5.55981 2.0412 5.62569 1.87535 5.62569C1.7095 5.62569 1.55044 5.55981 1.43316 5.44254C1.31588 5.32526 1.25 5.1662 1.25 5.00035C1.25 4.8345 1.31588 4.67544 1.43316 4.55816L3.93316 2.05816C4.05044 1.94088 4.2095 1.875 4.37535 1.875C4.5412 1.875 4.70026 1.94088 4.81753 2.05816C4.93481 2.17544 5.00069 2.3345 5.00069 2.50035C5.00069 2.6662 4.93481 2.82526 4.81753 2.94253ZM18.5675 4.55816L16.0675 2.05816C15.9503 1.94088 15.7912 1.875 15.6253 1.875C15.4595 1.875 15.3004 1.94088 15.1832 2.05816C15.0659 2.17544 15 2.3345 15 2.50035C15 2.6662 15.0659 2.82526 15.1832 2.94253L17.6832 5.44254C17.7412 5.5006 17.8102 5.54667 17.886 5.57809C17.9619 5.60952 18.0432 5.62569 18.1253 5.62569C18.2075 5.62569 18.2888 5.60952 18.3647 5.57809C18.4405 5.54667 18.5095 5.5006 18.5675 5.44254C18.6256 5.38447 18.6717 5.31553 18.7031 5.23966C18.7345 5.16379 18.7507 5.08247 18.7507 5.00035C18.7507 4.91823 18.7345 4.83691 18.7031 4.76104C18.6717 4.68517 18.6256 4.61623 18.5675 4.55816ZM17.5003 10.6253C17.5003 12.1087 17.0605 13.5588 16.2364 14.7921C15.4123 16.0255 14.2409 16.9868 12.8705 17.5544C11.5 18.1221 9.99203 18.2706 8.53717 17.9812C7.08231 17.6918 5.74594 16.9775 4.69705 15.9286C3.64815 14.8798 2.93385 13.5434 2.64446 12.0885C2.35507 10.6337 2.50359 9.12567 3.07125 7.75522C3.63891 6.38478 4.6002 5.21344 5.83357 4.38933C7.06694 3.56521 8.51699 3.12535 10.0003 3.12535C11.9888 3.12762 13.8951 3.91853 15.3011 5.32456C16.7072 6.73059 17.4981 8.63692 17.5003 10.6253ZM15.0003 10.6253C15.0003 10.4596 14.9345 10.3006 14.8173 10.1834C14.7001 10.0662 14.5411 10.0003 14.3753 10.0003H10.6253V6.25035C10.6253 6.08459 10.5595 5.92562 10.4423 5.80841C10.3251 5.6912 10.1661 5.62535 10.0003 5.62535C9.83459 5.62535 9.67562 5.6912 9.55841 5.80841C9.4412 5.92562 9.37535 6.08459 9.37535 6.25035V10.6253C9.37535 10.7911 9.4412 10.9501 9.55841 11.0673C9.67562 11.1845 9.83459 11.2503 10.0003 11.2503H14.3753C14.5411 11.2503 14.7001 11.1845 14.8173 11.0673C14.9345 10.9501 15.0003 10.7911 15.0003 10.6253Z" fill="#FF8F34"/>
</svg>
