<svg width="59" height="59" viewBox="0 0 59 59" fill="none" xmlns="http://www.w3.org/2000/svg">
<path d="M0 19C0 10.1634 7.16344 3 16 3H40C48.8366 3 56 10.1634 56 19V43C56 51.8366 48.8366 59 40 59H16C7.16344 59 0 51.8366 0 43V19Z" fill="#CDDDFE"/>
<path d="M14 17C12.1435 17 10.363 17.7375 9.05025 19.0503C7.7375 20.363 7 22.1435 7 24V38C7 39.8565 7.7375 41.637 9.05025 42.9497C10.363 44.2625 12.1435 45 14 45H28C29.8565 45 31.637 44.2625 32.9497 42.9497C34.2625 41.637 35 39.8565 35 38V24C35 22.1435 34.2625 20.363 32.9497 19.0503C31.637 17.7375 29.8565 17 28 17H14ZM49 22.25C49 21.925 48.9095 21.6064 48.7386 21.33C48.5678 21.0535 48.3233 20.8301 48.0326 20.6848C47.7419 20.5394 47.4165 20.4779 47.0928 20.5071C46.7692 20.5363 46.46 20.655 46.2 20.85L39.2 26.1C38.9827 26.263 38.8063 26.4744 38.6848 26.7174C38.5633 26.9604 38.5 27.2283 38.5 27.5V34.5C38.5 34.7717 38.5633 35.0396 38.6848 35.2826C38.8063 35.5256 38.9827 35.737 39.2 35.9L46.2 41.15C46.46 41.345 46.7692 41.4637 47.0928 41.4929C47.4165 41.5221 47.7419 41.4606 48.0326 41.3152C48.3233 41.1699 48.5678 40.9465 48.7386 40.67C48.9095 40.3936 49 40.075 49 39.75V22.25Z" fill="#F3F4F6"/>
<path d="M43 3C40.4288 3 37.9154 3.76244 35.7776 5.1909C33.6398 6.61935 31.9735 8.64968 30.9896 11.0251C30.0056 13.4006 29.7482 16.0144 30.2498 18.5362C30.7514 21.0579 31.9895 23.3743 33.8076 25.1924C35.6257 27.0105 37.9421 28.2486 40.4638 28.7502C42.9856 29.2518 45.5995 28.9944 47.9749 28.0104C50.3503 27.0265 52.3807 25.3603 53.8091 23.2224C55.2376 21.0846 56 18.5712 56 16C55.9964 12.5533 54.6256 9.24882 52.1884 6.81163C49.7512 4.37445 46.4467 3.00364 43 3ZM47.7075 19.2925C47.8004 19.3854 47.8741 19.4957 47.9244 19.6171C47.9747 19.7385 48.0006 19.8686 48.0006 20C48.0006 20.1314 47.9747 20.2615 47.9244 20.3829C47.8741 20.5043 47.8004 20.6146 47.7075 20.7075C47.6146 20.8004 47.5043 20.8741 47.3829 20.9244C47.2615 20.9747 47.1314 21.0006 47 21.0006C46.8686 21.0006 46.7385 20.9747 46.6171 20.9244C46.4957 20.8741 46.3854 20.8004 46.2925 20.7075L43 17.4137L39.7075 20.7075C39.6146 20.8004 39.5043 20.8741 39.3829 20.9244C39.2615 20.9747 39.1314 21.0006 39 21.0006C38.8686 21.0006 38.7385 20.9747 38.6171 20.9244C38.4957 20.8741 38.3854 20.8004 38.2925 20.7075C38.1996 20.6146 38.1259 20.5043 38.0756 20.3829C38.0253 20.2615 37.9994 20.1314 37.9994 20C37.9994 19.8686 38.0253 19.7385 38.0756 19.6171C38.1259 19.4957 38.1996 19.3854 38.2925 19.2925L41.5863 16L38.2925 12.7075C38.1049 12.5199 37.9994 12.2654 37.9994 12C37.9994 11.7346 38.1049 11.4801 38.2925 11.2925C38.4801 11.1049 38.7346 10.9994 39 10.9994C39.2654 10.9994 39.5199 11.1049 39.7075 11.2925L43 14.5863L46.2925 11.2925C46.3854 11.1996 46.4957 11.1259 46.6171 11.0756C46.7385 11.0253 46.8686 10.9994 47 10.9994C47.1314 10.9994 47.2615 11.0253 47.3829 11.0756C47.5043 11.1259 47.6146 11.1996 47.7075 11.2925C47.8004 11.3854 47.8741 11.4957 47.9244 11.6171C47.9747 11.7385 48.0006 11.8686 48.0006 12C48.0006 12.1314 47.9747 12.2615 47.9244 12.3829C47.8741 12.5043 47.8004 12.6146 47.7075 12.7075L44.4138 16L47.7075 19.2925Z" fill="#FF2559"/>
</svg>
