<svg width="192" height="56" viewBox="0 0 192 56" fill="none" xmlns="http://www.w3.org/2000/svg">
<path d="M47.4731 39.3491C46.904 32.8961 40.8186 29.7808 38.1597 28.7138C38.0316 28.6628 37.9184 28.5804 37.8306 28.4743C37.7429 28.3681 37.6833 28.2416 37.6575 28.1064C37.6317 27.9713 37.6405 27.8318 37.683 27.7009C37.7256 27.5701 37.8005 27.452 37.9009 27.3576C38.6819 26.6266 39.473 25.8856 40.2217 25.1914C44.2931 21.4208 46.6441 16.0948 46.4421 10.5574C46.3439 7.84599 45.6488 5.32819 43.9584 3.77945C39.9416 0.107888 34.9284 0.664185 31.5923 4.42698C30.5065 5.64586 29.5225 6.9512 28.65 8.32997C27.3646 10.3927 26.2857 12.5879 25.5593 14.9099C24.4681 18.3878 23.5398 20.2915 22.7197 21.186C21.7668 22.2263 19.4069 23.9486 17.4856 22.6925C15.5642 21.4363 15.6055 18.8206 15.6479 12.9606C15.6903 7.10055 14.9572 4.8175 13.8002 2.98951C12.6431 1.16152 10.0367 -0.555219 6.7474 0.170193C3.4581 0.895605 2.22629 3.80282 2.22629 3.80282C-0.689222 10.939 1.59588 16.3384 4.85951 19.1566C8.12314 21.9748 11.2194 22.3698 13.4164 22.362C13.9943 22.362 14.5321 22.3743 14.8267 22.4633C15.7305 22.7347 16.2393 23.3244 16.5327 24.0209C16.9165 24.9321 16.7559 25.7499 16.4368 26.5632C14.8089 30.6408 11.7505 30.9579 6.47292 35.0189C0.782481 39.3936 -1.25603 47.8138 1.6472 52.1251C4.55044 56.4364 8.83389 56.472 11.5999 55.4473C14.3659 54.4226 17.1386 52.4611 19.6736 50.6086C22.2086 48.7561 22.9094 46.8847 25.8338 47.0628C28.7582 47.2408 31.2408 50.2236 33.0093 52.3865C34.7778 54.5494 37.5505 53.7072 37.5505 53.7072C42.2825 52.4511 48.2028 47.6291 47.4731 39.3491ZM24.4123 30.4105C23.2965 32.1028 21.6396 32.9795 20.7046 32.3687C19.7696 31.7579 19.9157 29.8898 21.0293 28.1976C22.1428 26.5053 23.802 25.6275 24.737 26.2383C25.672 26.8491 25.5258 28.7172 24.4123 30.4105Z" fill="#0057D7"/>
<path d="M68.4681 20.9761H78.5704V15.3944C78.5704 14.165 79.0139 13.1076 79.9009 12.2224C80.7879 11.3372 81.8885 10.8946 83.2026 10.8946H83.2765C84.5742 10.8946 85.6748 11.3536 86.5783 12.2716C87.4653 13.124 87.9088 14.165 87.9088 15.3944V40.8193C87.9088 42.0487 87.4653 43.0897 86.5783 43.9421C85.6748 44.8601 84.5742 45.3191 83.2765 45.3191H83.2026C81.8885 45.3191 80.7879 44.8765 79.9009 43.9913C79.0139 43.1061 78.5704 42.0487 78.5704 40.8193V28.574H68.4681V40.8193C68.4681 42.0487 68.0246 43.0897 67.1375 43.9421C66.2505 44.8601 65.1499 45.3191 63.8358 45.3191H63.7619C62.4478 45.3191 61.3472 44.8601 60.4602 43.9421C59.5732 43.0897 59.1296 42.0487 59.1296 40.8193V15.3944C59.1296 14.165 59.5732 13.124 60.4602 12.2716C61.3472 11.3536 62.4478 10.8946 63.7619 10.8946H63.8358C65.1499 10.8946 66.2505 11.3536 67.1375 12.2716C68.0246 13.124 68.4681 14.165 68.4681 15.3944V20.9761Z" fill="#0057D7"/>
<path d="M112.253 14.9764C112.253 13.7633 112.696 12.7142 113.583 11.829C114.47 10.9438 115.563 10.5012 116.86 10.5012H116.934C118.232 10.5012 119.324 10.9438 120.211 11.829C121.098 12.7142 121.542 13.7633 121.542 14.9764V30.6887C121.542 34.754 120.088 38.2375 117.181 41.139C114.273 44.0404 110.742 45.4912 106.586 45.4912H106.29C102.036 45.4912 98.4217 44.0077 95.4486 41.0406C92.4589 38.0572 90.9641 34.4754 90.9641 30.2953V14.9764C90.9641 13.7633 91.4076 12.7142 92.2947 11.829C93.1817 10.9438 94.2741 10.5012 95.5718 10.5012H95.6457C96.9434 10.5012 98.0357 10.9438 98.9228 11.829C99.8098 12.7142 100.253 13.7633 100.253 14.9764V31.4018C100.253 33.1066 100.845 34.5491 102.027 35.7294C103.21 36.9097 104.615 37.4998 106.241 37.4998H106.389C107.982 37.4998 109.362 36.9179 110.528 35.754C111.678 34.6065 112.253 33.2049 112.253 31.5493V14.9764Z" fill="#0057D7"/>
<path d="M129.575 10.8946C130.889 10.8946 131.989 11.3536 132.876 12.2716C133.763 13.124 134.207 14.165 134.207 15.3944V37.9916H144.753C145.82 37.9916 146.724 38.3604 147.463 39.0981C148.153 39.803 148.498 40.6472 148.498 41.6307V41.6799C148.498 42.6635 148.153 43.5077 147.463 44.2126C146.724 44.9502 145.82 45.3191 144.753 45.3191H129.23C127.998 45.3191 126.955 44.8929 126.1 44.0404C125.279 43.2208 124.868 42.2373 124.868 41.0898V15.3944C124.868 14.165 125.312 13.124 126.199 12.2716C127.086 11.3536 128.187 10.8946 129.501 10.8946H129.575Z" fill="#0057D7"/>
<path d="M160.497 40.8193C160.497 42.0487 160.054 43.0897 159.167 43.9421C158.28 44.8601 157.179 45.3191 155.865 45.3191H155.791C154.477 45.3191 153.376 44.8601 152.489 43.9421C151.602 43.0897 151.159 42.0487 151.159 40.8193V15.3944C151.159 14.165 151.602 13.124 152.489 12.2716C153.376 11.3536 154.477 10.8946 155.791 10.8946H155.865C157.179 10.8946 158.28 11.3536 159.167 12.2716C160.054 13.124 160.497 14.165 160.497 15.3944V40.8193Z" fill="#0057D7"/>
<path d="M175.577 38.5817C177.466 38.5817 178.969 38.2785 180.086 37.6719C181.285 37.0326 181.885 36.0573 181.885 34.7459C181.885 33.5328 181.277 32.6148 180.061 31.9919C178.879 31.3854 177.261 31.0821 175.207 31.0821H173.532C173.417 31.0821 173.302 31.1231 173.187 31.2051C173.088 31.3034 173.039 31.4345 173.039 31.5985V38.0654C173.039 38.2129 173.096 38.3358 173.211 38.4342C173.294 38.5161 173.392 38.5571 173.507 38.5571C173.901 38.5735 174.591 38.5817 175.577 38.5817ZM173.039 23.853C173.039 24.0169 173.088 24.148 173.187 24.2464C173.269 24.3284 173.359 24.3693 173.458 24.3693H174.912C176.751 24.3693 178.148 24.0661 179.1 23.4596C179.971 22.9022 180.406 22.1482 180.406 21.1974C180.406 19.2303 178.821 18.2467 175.651 18.2467C174.797 18.2467 174.057 18.2713 173.433 18.3205C173.17 18.3369 173.039 18.5008 173.039 18.8123V23.853ZM185.507 26.8528C189.613 28.3937 191.667 31.0903 191.667 34.9426C191.667 37.8932 190.352 40.3275 187.724 42.2455C184.866 44.2945 180.012 45.3191 173.162 45.3191C172.012 45.3191 170.32 45.3764 168.086 45.4912C166.904 45.5568 165.869 45.1879 164.982 44.3847C164.16 43.6306 163.75 42.7044 163.75 41.6061V14.9764C163.75 13.9109 164.144 13.0011 164.933 12.247C165.754 11.4602 166.748 11.075 167.914 11.0914C168.423 11.1077 169.54 11.1323 171.265 11.1651C172.76 11.2143 173.967 11.2389 174.887 11.2389C179.782 11.2389 183.445 11.8782 185.876 13.1568C188.915 14.6158 190.435 16.8861 190.435 19.9679C190.435 22.9514 188.792 25.2136 185.507 26.7545C185.523 26.7545 185.531 26.7709 185.531 26.8036C185.531 26.8364 185.523 26.8528 185.507 26.8528Z" fill="#0057D7"/>
</svg>
