<svg width="54" height="54" viewBox="0 0 54 54" fill="none" xmlns="http://www.w3.org/2000/svg">
<g id="Rectangle 16" filter="url(#filter0_d_249_9485)">
<path d="M13.4948 25.8654C12.8295 25.4803 12.8295 24.5197 13.4948 24.1346L21.2692 19.6336C21.4204 19.5461 21.5461 19.4204 21.6336 19.2692L26.1346 11.4948C26.5197 10.8295 27.4803 10.8295 27.8654 11.4948L32.3664 19.2692C32.4539 19.4204 32.5796 19.5461 32.7308 19.6336L40.5052 24.1346C41.1705 24.5197 41.1705 25.4803 40.5052 25.8654L32.7308 30.3664C32.5796 30.4539 32.4539 30.5796 32.3664 30.7308L27.8654 38.5052C27.4803 39.1705 26.5197 39.1705 26.1346 38.5052L21.6336 30.7308C21.5461 30.5796 21.4204 30.4539 21.2692 30.3664L13.4948 25.8654Z" fill="#FFCE6D" shape-rendering="crispEdges"/>
<path d="M13.4948 25.8654C12.8295 25.4803 12.8295 24.5197 13.4948 24.1346L21.2692 19.6336C21.4204 19.5461 21.5461 19.4204 21.6336 19.2692L26.1346 11.4948C26.5197 10.8295 27.4803 10.8295 27.8654 11.4948L32.3664 19.2692C32.4539 19.4204 32.5796 19.5461 32.7308 19.6336L40.5052 24.1346C41.1705 24.5197 41.1705 25.4803 40.5052 25.8654L32.7308 30.3664C32.5796 30.4539 32.4539 30.5796 32.3664 30.7308L27.8654 38.5052C27.4803 39.1705 26.5197 39.1705 26.1346 38.5052L21.6336 30.7308C21.5461 30.5796 21.4204 30.4539 21.2692 30.3664L13.4948 25.8654Z" stroke="#FFC042" stroke-opacity="0.2" stroke-width="2" shape-rendering="crispEdges"/>
</g>
<defs>
<filter id="filter0_d_249_9485" x="-0.00390625" y="-0.00415039" width="54.0078" height="54.0083" filterUnits="userSpaceOnUse" color-interpolation-filters="sRGB">
<feFlood flood-opacity="0" result="BackgroundImageFix"/>
<feColorMatrix in="SourceAlpha" type="matrix" values="0 0 0 0 0 0 0 0 0 0 0 0 0 0 0 0 0 0 127 0" result="hardAlpha"/>
<feOffset dy="2"/>
<feGaussianBlur stdDeviation="6"/>
<feComposite in2="hardAlpha" operator="out"/>
<feColorMatrix type="matrix" values="0 0 0 0 1 0 0 0 0 0.807843 0 0 0 0 0.427451 0 0 0 0.25 0"/>
<feBlend mode="normal" in2="BackgroundImageFix" result="effect1_dropShadow_249_9485"/>
<feBlend mode="normal" in="SourceGraphic" in2="effect1_dropShadow_249_9485" result="shape"/>
</filter>
</defs>
</svg>
