<svg width="80" height="80" viewBox="0 0 80 80" fill="none" xmlns="http://www.w3.org/2000/svg">
<g id="Rectangle 15" filter="url(#filter0_d_249_9484)">
<path d="M15.9793 41.4617C13.3182 39.921 13.3182 36.079 15.9793 34.5383L28.0769 27.5344C28.6817 27.1843 29.1843 26.6817 29.5344 26.0769L36.5383 13.9793C38.079 11.3182 41.921 11.3182 43.4617 13.9793L50.4656 26.0769C50.8157 26.6817 51.3183 27.1843 51.9231 27.5344L64.0207 34.5383C66.6818 36.079 66.6818 39.921 64.0207 41.4617L51.9231 48.4656C51.3183 48.8157 50.8157 49.3183 50.4656 49.9231L43.4617 62.0207C41.921 64.6818 38.079 64.6818 36.5383 62.0207L29.5344 49.9231C29.1843 49.3183 28.6817 48.8157 28.0769 48.4656L15.9793 41.4617Z" fill="#FFCE6D" shape-rendering="crispEdges"/>
<path d="M15.9793 41.4617C13.3182 39.921 13.3182 36.079 15.9793 34.5383L28.0769 27.5344C28.6817 27.1843 29.1843 26.6817 29.5344 26.0769L36.5383 13.9793C38.079 11.3182 41.921 11.3182 43.4617 13.9793L50.4656 26.0769C50.8157 26.6817 51.3183 27.1843 51.9231 27.5344L64.0207 34.5383C66.6818 36.079 66.6818 39.921 64.0207 41.4617L51.9231 48.4656C51.3183 48.8157 50.8157 49.3183 50.4656 49.9231L43.4617 62.0207C41.921 64.6818 38.079 64.6818 36.5383 62.0207L29.5344 49.9231C29.1843 49.3183 28.6817 48.8157 28.0769 48.4656L15.9793 41.4617Z" stroke="#FFC042" stroke-opacity="0.2" stroke-width="2" shape-rendering="crispEdges"/>
</g>
<defs>
<filter id="filter0_d_249_9484" x="0.983398" y="0.983398" width="78.0332" height="78.0332" filterUnits="userSpaceOnUse" color-interpolation-filters="sRGB">
<feFlood flood-opacity="0" result="BackgroundImageFix"/>
<feColorMatrix in="SourceAlpha" type="matrix" values="0 0 0 0 0 0 0 0 0 0 0 0 0 0 0 0 0 0 127 0" result="hardAlpha"/>
<feOffset dy="2"/>
<feGaussianBlur stdDeviation="6"/>
<feComposite in2="hardAlpha" operator="out"/>
<feColorMatrix type="matrix" values="0 0 0 0 1 0 0 0 0 0.807843 0 0 0 0 0.427451 0 0 0 0.25 0"/>
<feBlend mode="normal" in2="BackgroundImageFix" result="effect1_dropShadow_249_9484"/>
<feBlend mode="normal" in="SourceGraphic" in2="effect1_dropShadow_249_9484" result="shape"/>
</filter>
</defs>
</svg>
