<svg width="79" height="79" viewBox="0 0 79 79" fill="none" xmlns="http://www.w3.org/2000/svg">
<g filter="url(#filter0_d_14295_13020)">
<path d="M14.9949 40.4783C12.3338 38.9376 12.3338 35.0956 14.9949 33.5549L27.0925 26.551C27.6974 26.2009 28.1999 25.6983 28.5501 25.0935L35.5539 12.9959C37.0946 10.3348 40.9367 10.3348 42.4773 12.9959L49.4812 25.0935C49.8314 25.6983 50.3339 26.2009 50.9387 26.551L63.0363 33.5549C65.6975 35.0956 65.6975 38.9376 63.0363 40.4783L50.9387 47.4822C50.3339 47.8323 49.8314 48.3349 49.4812 48.9397L42.4773 61.0373C40.9367 63.6984 37.0946 63.6984 35.5539 61.0373L28.5501 48.9397C28.1999 48.3349 27.6973 47.8323 27.0925 47.4822L14.9949 40.4783Z" fill="#FFCE6D" shape-rendering="crispEdges"/>
<path d="M14.9949 40.4783C12.3338 38.9376 12.3338 35.0956 14.9949 33.5549L27.0925 26.551C27.6974 26.2009 28.1999 25.6983 28.5501 25.0935L35.5539 12.9959C37.0946 10.3348 40.9367 10.3348 42.4773 12.9959L49.4812 25.0935C49.8314 25.6983 50.3339 26.2009 50.9387 26.551L63.0363 33.5549C65.6975 35.0956 65.6975 38.9376 63.0363 40.4783L50.9387 47.4822C50.3339 47.8323 49.8314 48.3349 49.4812 48.9397L42.4773 61.0373C40.9367 63.6984 37.0946 63.6984 35.5539 61.0373L28.5501 48.9397C28.1999 48.3349 27.6973 47.8323 27.0925 47.4822L14.9949 40.4783Z" stroke="#FFC042" stroke-opacity="0.2" stroke-width="2" shape-rendering="crispEdges"/>
</g>
<defs>
<filter id="filter0_d_14295_13020" x="0" y="0" width="78.0312" height="78.0332" filterUnits="userSpaceOnUse" color-interpolation-filters="sRGB">
<feFlood flood-opacity="0" result="BackgroundImageFix"/>
<feColorMatrix in="SourceAlpha" type="matrix" values="0 0 0 0 0 0 0 0 0 0 0 0 0 0 0 0 0 0 127 0" result="hardAlpha"/>
<feOffset dy="2"/>
<feGaussianBlur stdDeviation="6"/>
<feComposite in2="hardAlpha" operator="out"/>
<feColorMatrix type="matrix" values="0 0 0 0 1 0 0 0 0 0.807843 0 0 0 0 0.427451 0 0 0 0.25 0"/>
<feBlend mode="normal" in2="BackgroundImageFix" result="effect1_dropShadow_14295_13020"/>
<feBlend mode="normal" in="SourceGraphic" in2="effect1_dropShadow_14295_13020" result="shape"/>
</filter>
</defs>
</svg>
