<svg width="44" height="44" viewBox="0 0 44 44" fill="none" xmlns="http://www.w3.org/2000/svg">
<rect width="44" height="44" rx="22" fill="#0858FA"/>
<path d="M31.6695 17.7048C31.5699 17.6513 31.4576 17.626 31.3446 17.6313C31.2317 17.6367 31.1223 17.6726 31.0281 17.7352L28.25 19.5837V17.6266C28.25 17.2951 28.1183 16.9772 27.8839 16.7428C27.6495 16.5083 27.3315 16.3766 27 16.3766H20.8328C20.6671 16.3766 20.5081 16.4425 20.3909 16.5597C20.2737 16.6769 20.2078 16.8359 20.2078 17.0016C20.2078 17.1674 20.2737 17.3264 20.3909 17.4436C20.5081 17.5608 20.6671 17.6266 20.8328 17.6266H27V24.4727C27 24.6385 27.0658 24.7975 27.1831 24.9147C27.3003 25.0319 27.4592 25.0977 27.625 25.0977C27.7908 25.0977 27.9497 25.0319 28.0669 24.9147C28.1842 24.7975 28.25 24.6385 28.25 24.4727V24.4235L31.0281 26.2759C31.1313 26.3429 31.252 26.3779 31.375 26.3766C31.5408 26.3766 31.6997 26.3108 31.8169 26.1936C31.9342 26.0764 32 25.9174 32 25.7516V18.2516C31.9992 18.1392 31.9681 18.029 31.9099 17.9328C31.8518 17.8365 31.7687 17.7578 31.6695 17.7048ZM30.75 24.5837L28.25 22.9173V21.086L30.75 19.4235V24.5837ZM16.2125 14.7063C16.1576 14.6445 16.091 14.5941 16.0165 14.5582C15.942 14.5222 15.8611 14.5014 15.7785 14.497C15.6959 14.4926 15.6133 14.5045 15.5354 14.5323C15.4575 14.56 15.3858 14.6029 15.3246 14.6586C15.2634 14.7142 15.2139 14.7814 15.1788 14.8563C15.1438 14.9312 15.124 15.0124 15.1205 15.095C15.1171 15.1776 15.13 15.2601 15.1587 15.3377C15.1874 15.4153 15.2311 15.4864 15.2875 15.547L16.0414 16.3766H14.5C14.1685 16.3766 13.8505 16.5083 13.6161 16.7428C13.3817 16.9772 13.25 17.2951 13.25 17.6266V26.3766C13.25 26.7082 13.3817 27.0261 13.6161 27.2605C13.8505 27.4949 14.1685 27.6266 14.5 27.6266H26.2688L27.7875 29.297C27.8424 29.3588 27.909 29.4092 27.9835 29.4451C28.058 29.4811 28.1389 29.5018 28.2215 29.5063C28.3041 29.5107 28.3867 29.4987 28.4646 29.471C28.5425 29.4433 28.6142 29.4003 28.6754 29.3447C28.7366 29.2891 28.7861 29.2219 28.8212 29.147C28.8562 29.072 28.876 28.9909 28.8795 28.9083C28.8829 28.8256 28.87 28.7431 28.8413 28.6656C28.8126 28.588 28.7689 28.5169 28.7125 28.4563L16.2125 14.7063ZM14.5 26.3766V17.6266H17.1781L25.1328 26.3766H14.5Z" fill="#F9F9F9"/>
</svg>
