
<svg width="61" height="60" viewBox="0 0 61 60" fill="none" xmlns="http://www.w3.org/2000/svg">
<rect x="0.5" width="60" height="60" rx="30" fill="#0858FA"/>
<path d="M47.9052 22.2656C47.7258 22.1695 47.5236 22.1238 47.3203 22.1334C47.117 22.1431 46.9201 22.2077 46.7506 22.3205L41.75 25.6477V22.125C41.75 21.5283 41.5129 20.956 41.091 20.534C40.669 20.1121 40.0967 19.875 39.5 19.875H17C16.4033 19.875 15.831 20.1121 15.409 20.534C14.9871 20.956 14.75 21.5283 14.75 22.125V37.875C14.75 38.4717 14.9871 39.044 15.409 39.466C15.831 39.8879 16.4033 40.125 17 40.125H39.5C40.0967 40.125 40.669 39.8879 41.091 39.466C41.5129 39.044 41.75 38.4717 41.75 37.875V34.3594L46.7506 37.6936C46.9364 37.8142 47.1536 37.8773 47.375 37.875C47.6734 37.875 47.9595 37.7565 48.1705 37.5455C48.3815 37.3345 48.5 37.0484 48.5 36.75V23.25C48.4986 23.0476 48.4426 22.8493 48.3379 22.6761C48.2332 22.5028 48.0837 22.361 47.9052 22.2656ZM39.5 37.875H17V22.125H39.5V37.875ZM46.25 34.6477L41.75 31.6481V28.3519L46.25 25.3594V34.6477Z" fill="#F9F9F9"/>
</svg>
