<svg width="44" height="44" viewBox="0 0 44 44" fill="none" xmlns="http://www.w3.org/2000/svg">
<path d="M31.625 16.75H28.125V13.25C28.125 12.7859 27.9406 12.3408 27.6124 12.0126C27.2842 11.6844 26.8391 11.5 26.375 11.5H12.375C11.9109 11.5 11.4658 11.6844 11.1376 12.0126C10.8094 12.3408 10.625 12.7859 10.625 13.25V27.25C10.6255 27.4146 10.6725 27.5758 10.7604 27.7149C10.8484 27.854 10.9738 27.9655 11.1223 28.0366C11.2708 28.1076 11.4364 28.1353 11.5999 28.1165C11.7634 28.0977 11.9184 28.0332 12.0469 27.9303L15.875 24.8438V28.125C15.875 28.5891 16.0594 29.0342 16.3876 29.3624C16.7158 29.6906 17.1609 29.875 17.625 29.875H27.8614L31.9531 33.1803C32.108 33.3055 32.3009 33.3742 32.5 33.375C32.7321 33.375 32.9546 33.2828 33.1187 33.1187C33.2828 32.9546 33.375 32.7321 33.375 32.5V18.5C33.375 18.0359 33.1906 17.5908 32.8624 17.2626C32.5342 16.9344 32.0891 16.75 31.625 16.75ZM15.2789 23.0697L12.375 25.418V13.25H26.375V22.875H15.8291C15.6288 22.875 15.4346 22.9437 15.2789 23.0697ZM31.625 30.668L28.7211 28.3197C28.5663 28.1945 28.3734 28.1258 28.1742 28.125H17.625V24.625H26.375C26.8391 24.625 27.2842 24.4406 27.6124 24.1124C27.9406 23.7842 28.125 23.3391 28.125 22.875V18.5H31.625V30.668Z" fill="#0858FA"/>
</svg>
