<svg width="44" height="44" viewBox="0 0 44 44" fill="none" xmlns="http://www.w3.org/2000/svg">
<path d="M22 0.5C33.8741 0.5 43.5 10.1259 43.5 22C43.5 33.8741 33.8741 43.5 22 43.5C10.1259 43.5 0.5 33.8741 0.5 22C0.5 10.1259 10.1259 0.5 22 0.5Z" fill="#EE0038"/>
<path d="M22 0.5C33.8741 0.5 43.5 10.1259 43.5 22C43.5 33.8741 33.8741 43.5 22 43.5C10.1259 43.5 0.5 33.8741 0.5 22C0.5 10.1259 10.1259 0.5 22 0.5Z" stroke="#EE0038"/>
<path d="M16.2138 14.7063C16.1589 14.6445 16.0923 14.5941 16.0178 14.5582C15.9433 14.5222 15.8624 14.5014 15.7798 14.497C15.6972 14.4926 15.6146 14.5045 15.5366 14.5323C15.4587 14.56 15.3871 14.6029 15.3259 14.6586C15.2647 14.7142 15.2151 14.7814 15.1801 14.8563C15.145 14.9312 15.1252 15.0124 15.1218 15.095C15.1183 15.1776 15.1313 15.2601 15.16 15.3377C15.1886 15.4153 15.2324 15.4864 15.2888 15.547L17.4442 17.9188C16.122 18.4742 14.9207 19.282 13.9075 20.297C12.345 21.8595 12.195 24.161 13.5411 25.8962C13.7063 26.1075 13.9351 26.2601 14.1936 26.3315C14.4522 26.4028 14.7269 26.389 14.977 26.2923L18.8052 24.9352L18.8278 24.9266C19.0209 24.8494 19.1917 24.7253 19.3247 24.5654C19.4578 24.4055 19.5488 24.215 19.5895 24.011L20.0505 21.7055C20.2695 21.63 20.4928 21.5674 20.7192 21.518L27.7903 29.297C27.8452 29.3588 27.9118 29.4092 27.9863 29.4451C28.0608 29.4811 28.1417 29.5018 28.2243 29.5063C28.3069 29.5107 28.3895 29.4987 28.4674 29.471C28.5454 29.4433 28.617 29.4003 28.6782 29.3447C28.7394 29.2891 28.789 29.2219 28.824 29.147C28.859 29.072 28.8789 28.9909 28.8823 28.9083C28.8858 28.8256 28.8728 28.7431 28.8441 28.6656C28.8155 28.588 28.7717 28.5169 28.7153 28.4563L16.2138 14.7063ZM19.6278 20.5282C19.4243 20.6007 19.243 20.7248 19.1017 20.8883C18.9604 21.0518 18.8639 21.2491 18.8216 21.461L18.3606 23.7657L14.5497 25.1173C14.5419 25.1173 14.5364 25.1274 14.5286 25.1305C13.5653 23.8884 13.6692 22.3009 14.7911 21.1805C15.7967 20.1746 17.0088 19.3989 18.3435 18.9071L19.7731 20.4805C19.7247 20.4962 19.6763 20.511 19.6278 20.5282ZM30.4599 25.8962C30.2947 26.1075 30.0659 26.2601 29.8073 26.3315C29.5488 26.4028 29.2741 26.389 29.0239 26.2923L28.3013 26.036C28.2239 26.0086 28.1527 25.9662 28.0917 25.9112C28.0308 25.8562 27.9812 25.7898 27.9459 25.7157C27.8747 25.566 27.8658 25.3942 27.9212 25.238C27.9486 25.1606 27.991 25.0894 28.046 25.0285C28.101 24.9675 28.1674 24.9179 28.2415 24.8826C28.3912 24.8114 28.563 24.8025 28.7192 24.8579L29.4513 25.1173L29.4747 25.1266C30.4356 23.8884 30.3341 22.3009 29.2099 21.1805C27.2052 19.1759 24.3755 18.1126 21.4481 18.2657C21.3661 18.27 21.284 18.258 21.2065 18.2305C21.129 18.2031 21.0577 18.1606 20.9967 18.1056C20.9357 18.0505 20.886 17.984 20.8507 17.9098C20.8154 17.8356 20.795 17.7552 20.7907 17.6731C20.7865 17.591 20.7984 17.5089 20.8259 17.4315C20.8534 17.354 20.8958 17.2827 20.9508 17.2217C21.0059 17.1606 21.0724 17.111 21.1466 17.0757C21.2208 17.0403 21.3012 17.02 21.3833 17.0157C24.6645 16.8446 27.8388 18.0391 30.0935 20.297C31.6552 21.8587 31.806 24.161 30.4599 25.8962Z" fill="#F9F9F9"/>
</svg>
