<svg width="44" height="44" viewBox="0 0 44 44" fill="none" xmlns="http://www.w3.org/2000/svg">
<path d="M0 22C0 9.84974 9.84974 0 22 0C34.1503 0 44 9.84974 44 22C44 34.1503 34.1503 44 22 44C9.84974 44 0 34.1503 0 22Z" fill="white"/>
<path d="M30.0568 30.4945L15.0568 13.9945C14.9223 13.8501 14.7363 13.7645 14.5391 13.7562C14.3419 13.748 14.1495 13.8178 14.0034 13.9505C13.8573 14.0833 13.7695 14.2682 13.7589 14.4653C13.7483 14.6624 13.8158 14.8557 13.9468 15.0033L17.5018 18.9136V21.9989C17.5016 22.7629 17.6959 23.5144 18.0665 24.1825C18.437 24.8506 18.9715 25.4134 19.6197 25.8178C20.2679 26.2222 21.0083 26.4549 21.7713 26.4941C22.5343 26.5332 23.2947 26.3774 23.9808 26.0414L25.0215 27.1852C24.1056 27.7211 23.0629 28.002 22.0018 27.9989C20.411 27.9972 18.8859 27.3645 17.761 26.2396C16.6362 25.1148 16.0035 23.5897 16.0018 21.9989C16.0018 21.8 15.9227 21.6092 15.7821 21.4686C15.6414 21.3279 15.4507 21.2489 15.2518 21.2489C15.0529 21.2489 14.8621 21.3279 14.7214 21.4686C14.5808 21.6092 14.5018 21.8 14.5018 21.9989C14.504 23.8576 15.1954 25.6493 16.4422 27.0277C17.689 28.4061 19.4027 29.2733 21.2518 29.4614V32.4989C21.2518 32.6978 21.3308 32.8886 21.4714 33.0292C21.6121 33.1699 21.8029 33.2489 22.0018 33.2489C22.2007 33.2489 22.3914 33.1699 22.5321 33.0292C22.6727 32.8886 22.7518 32.6978 22.7518 32.4989V29.4605C23.9262 29.3472 25.0565 28.9544 26.048 28.3149L28.9468 31.5024C29.0126 31.5766 29.0926 31.637 29.182 31.6802C29.2714 31.7233 29.3684 31.7482 29.4675 31.7536C29.5666 31.7589 29.6658 31.7445 29.7593 31.7112C29.8528 31.6779 29.9388 31.6264 30.0122 31.5597C30.0857 31.4929 30.1451 31.4123 30.1872 31.3224C30.2292 31.2325 30.253 31.1351 30.2572 31.0359C30.2613 30.9368 30.2457 30.8378 30.2113 30.7447C30.1769 30.6516 30.1244 30.5662 30.0568 30.4936V30.4945ZM22.0018 24.9989C21.2061 24.9989 20.4431 24.6828 19.8804 24.1202C19.3178 23.5576 19.0018 22.7946 19.0018 21.9989V20.5636L22.9074 24.8592C22.6144 24.9519 22.309 24.999 22.0018 24.9989ZM27.3943 24.6324C27.7966 23.8129 28.0044 22.9118 28.0018 21.9989C28.0018 21.8 28.0808 21.6092 28.2214 21.4686C28.3621 21.3279 28.5529 21.2489 28.7518 21.2489C28.9507 21.2489 29.1414 21.3279 29.2821 21.4686C29.4227 21.6092 29.5018 21.8 29.5018 21.9989C29.5049 23.1403 29.2447 24.267 28.7415 25.2914C28.6798 25.4177 28.5839 25.5241 28.4648 25.5985C28.3456 25.6729 28.2079 25.7124 28.0674 25.7124C27.9532 25.7125 27.8406 25.6862 27.7383 25.6355C27.5597 25.5481 27.4231 25.3933 27.3586 25.2052C27.2941 25.017 27.3069 24.811 27.3943 24.6324ZM17.8768 14.2055C18.2898 13.2581 19.0164 12.4817 19.9345 12.0069C20.8525 11.5321 21.906 11.3877 22.9179 11.5982C23.9298 11.8086 24.8384 12.3609 25.4911 13.1623C26.1437 13.9637 26.5006 14.9654 26.5018 15.9989V21.9989C26.5016 22.1555 26.4935 22.3119 26.4774 22.4677C26.4581 22.6528 26.3706 22.8241 26.232 22.9484C26.0934 23.0726 25.9135 23.1409 25.7274 23.1399C25.7012 23.1412 25.6749 23.1412 25.6486 23.1399C25.4509 23.1191 25.2694 23.0206 25.1443 22.866C25.0191 22.7115 24.9604 22.5136 24.9811 22.3158C24.9915 22.2127 24.9971 22.1058 24.9971 22.0008V15.9989C24.9951 15.3108 24.7566 14.6443 24.3216 14.1111C23.8867 13.5779 23.2816 13.2105 22.6079 13.0704C21.9342 12.9303 21.2328 13.026 20.6213 13.3416C20.0098 13.6572 19.5254 14.1733 19.2493 14.8036C19.2142 14.8998 19.1598 14.9878 19.0895 15.0622C19.0191 15.1365 18.9343 15.1957 18.8402 15.2361C18.7461 15.2764 18.6448 15.2971 18.5424 15.2968C18.4401 15.2965 18.3388 15.2752 18.245 15.2343C18.1511 15.1934 18.0667 15.1338 17.9967 15.059C17.9268 14.9842 17.873 14.8959 17.8385 14.7995C17.804 14.7031 17.7896 14.6007 17.7962 14.4985C17.8027 14.3964 17.8302 14.2966 17.8768 14.2055Z" fill="#0858FA"/>
</svg>
