<svg width="44" height="44" viewBox="0 0 44 44" fill="none" xmlns="http://www.w3.org/2000/svg">
<path d="M22 0.5C33.8741 0.5 43.5 10.1259 43.5 22C43.5 33.8741 33.8741 43.5 22 43.5C10.1259 43.5 0.5 33.8741 0.5 22C0.5 10.1259 10.1259 0.5 22 0.5Z" stroke="#0858FA"/>
<path d="M31.75 15.25V28.75C31.75 29.1478 31.592 29.5294 31.3107 29.8107C31.0294 30.092 30.6478 30.25 30.25 30.25H23.5C23.3011 30.25 23.1103 30.171 22.9697 30.0303C22.829 29.8897 22.75 29.6989 22.75 29.5C22.75 29.3011 22.829 29.1103 22.9697 28.9697C23.1103 28.829 23.3011 28.75 23.5 28.75H30.25V15.25H13.75V19C13.75 19.1989 13.671 19.3897 13.5303 19.5303C13.3897 19.671 13.1989 19.75 13 19.75C12.8011 19.75 12.6103 19.671 12.4697 19.5303C12.329 19.3897 12.25 19.1989 12.25 19V15.25C12.25 14.8522 12.408 14.4706 12.6893 14.1893C12.9706 13.908 13.3522 13.75 13.75 13.75H30.25C30.6478 13.75 31.0294 13.908 31.3107 14.1893C31.592 14.4706 31.75 14.8522 31.75 15.25ZM13 27.25C12.8011 27.25 12.6103 27.329 12.4697 27.4697C12.329 27.6103 12.25 27.8011 12.25 28C12.25 28.1989 12.329 28.3897 12.4697 28.5303C12.6103 28.671 12.8011 28.75 13 28.75C13.1989 28.75 13.3897 28.829 13.5303 28.9697C13.671 29.1103 13.75 29.3011 13.75 29.5C13.75 29.6989 13.829 29.8897 13.9697 30.0303C14.1103 30.171 14.3011 30.25 14.5 30.25C14.6989 30.25 14.8897 30.171 15.0303 30.0303C15.171 29.8897 15.25 29.6989 15.25 29.5C15.25 28.9033 15.0129 28.331 14.591 27.909C14.169 27.4871 13.5967 27.25 13 27.25ZM13 24.25C12.8011 24.25 12.6103 24.329 12.4697 24.4697C12.329 24.6103 12.25 24.8011 12.25 25C12.25 25.1989 12.329 25.3897 12.4697 25.5303C12.6103 25.671 12.8011 25.75 13 25.75C13.9946 25.75 14.9484 26.1451 15.6517 26.8483C16.3549 27.5516 16.75 28.5054 16.75 29.5C16.75 29.6989 16.829 29.8897 16.9697 30.0303C17.1103 30.171 17.3011 30.25 17.5 30.25C17.6989 30.25 17.8897 30.171 18.0303 30.0303C18.171 29.8897 18.25 29.6989 18.25 29.5C18.2485 28.1081 17.6949 26.7736 16.7107 25.7893C15.7264 24.8051 14.3919 24.2515 13 24.25ZM13 21.25C12.8011 21.25 12.6103 21.329 12.4697 21.4697C12.329 21.6103 12.25 21.8011 12.25 22C12.25 22.1989 12.329 22.3897 12.4697 22.5303C12.6103 22.671 12.8011 22.75 13 22.75C14.7896 22.752 16.5053 23.4638 17.7708 24.7292C19.0362 25.9947 19.748 27.7104 19.75 29.5C19.75 29.6989 19.829 29.8897 19.9697 30.0303C20.1103 30.171 20.3011 30.25 20.5 30.25C20.6989 30.25 20.8897 30.171 21.0303 30.0303C21.171 29.8897 21.25 29.6989 21.25 29.5C21.2475 27.3127 20.3775 25.2157 18.8309 23.6691C17.2843 22.1225 15.1873 21.2525 13 21.25Z" fill="#0858FA"/>
</svg>
