<svg width="65" height="64" viewBox="0 0 65 64" fill="none" xmlns="http://www.w3.org/2000/svg">
<g filter="url(#filter0_d_10546_111833)">
<path d="M2.5 32C2.5 15.4315 15.9315 2 32.5 2C49.0685 2 62.5 15.4315 62.5 32C62.5 48.5685 49.0685 62 32.5 62C15.9315 62 2.5 48.5685 2.5 32Z" fill="#E3E4E6"/>
<path d="M32.5 3C48.5163 3 61.5 15.9837 61.5 32C61.5 48.0163 48.5163 61 32.5 61C16.4837 61 3.5 48.0163 3.5 32C3.5 15.9837 16.4837 3 32.5 3Z" stroke="#C2C6CF" stroke-width="2"/>
<path d="M47.125 21.875V42.125C47.125 42.7217 46.8879 43.294 46.466 43.716C46.044 44.1379 45.4717 44.375 44.875 44.375H34.75C34.4516 44.375 34.1655 44.2565 33.9545 44.0455C33.7435 43.8345 33.625 43.5484 33.625 43.25C33.625 42.9516 33.7435 42.6655 33.9545 42.4545C34.1655 42.2435 34.4516 42.125 34.75 42.125H44.875V21.875H20.125V27.5C20.125 27.7984 20.0065 28.0845 19.7955 28.2955C19.5845 28.5065 19.2984 28.625 19 28.625C18.7016 28.625 18.4155 28.5065 18.2045 28.2955C17.9935 28.0845 17.875 27.7984 17.875 27.5V21.875C17.875 21.2783 18.1121 20.706 18.534 20.284C18.956 19.8621 19.5283 19.625 20.125 19.625H44.875C45.4717 19.625 46.044 19.8621 46.466 20.284C46.8879 20.706 47.125 21.2783 47.125 21.875ZM19 39.875C18.7016 39.875 18.4155 39.9935 18.2045 40.2045C17.9935 40.4155 17.875 40.7016 17.875 41C17.875 41.2984 17.9935 41.5845 18.2045 41.7955C18.4155 42.0065 18.7016 42.125 19 42.125C19.2984 42.125 19.5845 42.2435 19.7955 42.4545C20.0065 42.6655 20.125 42.9516 20.125 43.25C20.125 43.5484 20.2435 43.8345 20.4545 44.0455C20.6655 44.2565 20.9516 44.375 21.25 44.375C21.5484 44.375 21.8345 44.2565 22.0455 44.0455C22.2565 43.8345 22.375 43.5484 22.375 43.25C22.375 42.3549 22.0194 41.4964 21.3865 40.8635C20.7536 40.2306 19.8951 39.875 19 39.875ZM19 35.375C18.7016 35.375 18.4155 35.4935 18.2045 35.7045C17.9935 35.9155 17.875 36.2016 17.875 36.5C17.875 36.7984 17.9935 37.0845 18.2045 37.2955C18.4155 37.5065 18.7016 37.625 19 37.625C20.4918 37.625 21.9226 38.2176 22.9775 39.2725C24.0324 40.3274 24.625 41.7582 24.625 43.25C24.625 43.5484 24.7435 43.8345 24.9545 44.0455C25.1655 44.2565 25.4516 44.375 25.75 44.375C26.0484 44.375 26.3345 44.2565 26.5455 44.0455C26.7565 43.8345 26.875 43.5484 26.875 43.25C26.8728 41.1621 26.0424 39.1604 24.566 37.684C23.0896 36.2076 21.0879 35.3772 19 35.375ZM19 30.875C18.7016 30.875 18.4155 30.9935 18.2045 31.2045C17.9935 31.4155 17.875 31.7016 17.875 32C17.875 32.2984 17.9935 32.5845 18.2045 32.7955C18.4155 33.0065 18.7016 33.125 19 33.125C21.6844 33.128 24.258 34.1957 26.1562 36.0938C28.0543 37.992 29.122 40.5656 29.125 43.25C29.125 43.5484 29.2435 43.8345 29.4545 44.0455C29.6655 44.2565 29.9516 44.375 30.25 44.375C30.5484 44.375 30.8345 44.2565 31.0455 44.0455C31.2565 43.8345 31.375 43.5484 31.375 43.25C31.3713 39.9691 30.0663 36.8236 27.7463 34.5037C25.4264 32.1837 22.2809 30.8787 19 30.875Z" fill="#0858FA"/>
</g>
<defs>
<filter id="filter0_d_10546_111833" x="0.5" y="0" width="64" height="64" filterUnits="userSpaceOnUse" color-interpolation-filters="sRGB">
<feFlood flood-opacity="0" result="BackgroundImageFix"/>
<feColorMatrix in="SourceAlpha" type="matrix" values="0 0 0 0 0 0 0 0 0 0 0 0 0 0 0 0 0 0 127 0" result="hardAlpha"/>
<feMorphology radius="2" operator="dilate" in="SourceAlpha" result="effect1_dropShadow_10546_111833"/>
<feOffset/>
<feComposite in2="hardAlpha" operator="out"/>
<feColorMatrix type="matrix" values="0 0 0 0 0.0313726 0 0 0 0 0.345098 0 0 0 0 0.980392 0 0 0 1 0"/>
<feBlend mode="normal" in2="BackgroundImageFix" result="effect1_dropShadow_10546_111833"/>
<feBlend mode="normal" in="SourceGraphic" in2="effect1_dropShadow_10546_111833" result="shape"/>
</filter>
</defs>
</svg>
