<svg width="44" height="44" viewBox="0 0 44 44" fill="none" xmlns="http://www.w3.org/2000/svg">
<path d="M0 22C0 9.84974 9.84974 0 22 0C34.1503 0 44 9.84974 44 22C44 34.1503 34.1503 44 22 44C9.84974 44 0 34.1503 0 22Z" fill="#0858FA"/>
<path d="M28.7114 29.0794L16.2114 15.3294C16.0993 15.2091 15.9443 15.1377 15.78 15.1308C15.6157 15.124 15.4553 15.1822 15.3336 15.2928C15.2119 15.4034 15.1386 15.5575 15.1298 15.7217C15.121 15.8859 15.1772 16.047 15.2864 16.1701L18.2489 19.4287V21.9998C18.2487 22.6364 18.4107 23.2626 18.7194 23.8194C19.0282 24.3761 19.4737 24.8451 20.0138 25.1821C20.554 25.5192 21.171 25.7131 21.8068 25.7457C22.4426 25.7783 23.0763 25.6485 23.6481 25.3685L24.5153 26.3216C23.752 26.7682 22.8832 27.0024 21.9989 26.9998C20.6732 26.9983 19.4023 26.4711 18.4649 25.5337C17.5276 24.5963 17.0003 23.3254 16.9989 21.9998C16.9989 21.834 16.933 21.675 16.8158 21.5578C16.6986 21.4406 16.5396 21.3748 16.3739 21.3748C16.2081 21.3748 16.0491 21.4406 15.9319 21.5578C15.8147 21.675 15.7489 21.834 15.7489 21.9998C15.7508 23.5486 16.3269 25.0417 17.3659 26.1904C18.4049 27.3391 19.833 28.0617 21.3739 28.2185V30.7498C21.3739 30.9155 21.4397 31.0745 21.5569 31.1917C21.6741 31.3089 21.8331 31.3748 21.9989 31.3748C22.1646 31.3748 22.3236 31.3089 22.4408 31.1917C22.558 31.0745 22.6239 30.9155 22.6239 30.7498V28.2177C23.6026 28.1233 24.5445 27.796 25.3707 27.263L27.7864 29.9193C27.8413 29.9812 27.9079 30.0315 27.9824 30.0674C28.0569 30.1034 28.1377 30.1242 28.2203 30.1286C28.3029 30.1331 28.3856 30.1211 28.4635 30.0933C28.5414 30.0656 28.613 30.0227 28.6742 29.967C28.7355 29.9114 28.785 29.8442 28.8201 29.7693C28.8551 29.6944 28.8749 29.6132 28.8784 29.5306C28.8818 29.448 28.8688 29.3655 28.8402 29.2879C28.8115 29.2103 28.7677 29.1392 28.7114 29.0787V29.0794ZM21.9989 24.4998C21.3358 24.4998 20.6999 24.2364 20.2311 23.7675C19.7623 23.2987 19.4989 22.6628 19.4989 21.9998V20.8037L22.7536 24.3833C22.5094 24.4606 22.2549 24.4998 21.9989 24.4998ZM26.4926 24.1943C26.8279 23.5114 27.0011 22.7605 26.9989 21.9998C26.9989 21.834 27.0647 21.675 27.1819 21.5578C27.2991 21.4406 27.4581 21.3748 27.6239 21.3748C27.7896 21.3748 27.9486 21.4406 28.0658 21.5578C28.183 21.675 28.2489 21.834 28.2489 21.9998C28.2515 22.9509 28.0347 23.8898 27.6153 24.7435C27.5639 24.8487 27.484 24.9374 27.3847 24.9994C27.2854 25.0614 27.1706 25.0943 27.0536 25.0943C26.9584 25.0944 26.8646 25.0725 26.7793 25.0302C26.6305 24.9574 26.5167 24.8284 26.4629 24.6716C26.4091 24.5149 26.4198 24.3432 26.4926 24.1943ZM18.5614 15.5052C18.9056 14.7157 19.5111 14.0687 20.2761 13.6731C21.0411 13.2774 21.919 13.1571 22.7623 13.3324C23.6055 13.5078 24.3627 13.9681 24.9066 14.6359C25.4505 15.3037 25.7479 16.1385 25.7489 16.9998V21.9998C25.7487 22.1302 25.742 22.2606 25.7286 22.3904C25.7125 22.5447 25.6396 22.6874 25.5241 22.791C25.4086 22.8945 25.2587 22.9514 25.1036 22.9505C25.0817 22.9517 25.0598 22.9517 25.0379 22.9505C24.8731 22.9332 24.7219 22.8511 24.6176 22.7223C24.5133 22.5936 24.4644 22.4286 24.4817 22.2638C24.4903 22.1779 24.495 22.0888 24.495 22.0013V16.9998C24.4933 16.4263 24.2946 15.8709 23.9321 15.4266C23.5696 14.9823 23.0654 14.6761 22.504 14.5593C21.9426 14.4426 21.3581 14.5223 20.8485 14.7853C20.3389 15.0483 19.9352 15.4784 19.7051 16.0037C19.6759 16.0838 19.6306 16.1571 19.572 16.2191C19.5133 16.2811 19.4427 16.3304 19.3643 16.364C19.2859 16.3977 19.2014 16.4149 19.1161 16.4146C19.0308 16.4144 18.9464 16.3967 18.8682 16.3626C18.79 16.3285 18.7196 16.2788 18.6613 16.2165C18.6031 16.1541 18.5582 16.0806 18.5295 16.0002C18.5007 15.9199 18.4887 15.8346 18.4942 15.7494C18.4997 15.6643 18.5225 15.5812 18.5614 15.5052Z" fill="#F9F9F9"/>
</svg>
