<svg width="45" height="44" viewBox="0 0 45 44" fill="none" xmlns="http://www.w3.org/2000/svg">
<path d="M0.5 22C0.5 9.84974 10.3497 0 22.5 0C34.6503 0 44.5 9.84974 44.5 22C44.5 34.1503 34.6503 44 22.5 44C10.3497 44 0.5 34.1503 0.5 22Z" fill="#0858FA"/>
<path d="M22.5 25.75C23.4942 25.749 24.4475 25.3535 25.1505 24.6505C25.8535 23.9475 26.249 22.9942 26.25 22V17C26.25 16.0054 25.8549 15.0516 25.1517 14.3483C24.4484 13.6451 23.4946 13.25 22.5 13.25C21.5054 13.25 20.5516 13.6451 19.8483 14.3483C19.1451 15.0516 18.75 16.0054 18.75 17V22C18.751 22.9942 19.1465 23.9475 19.8495 24.6505C20.5525 25.3535 21.5058 25.749 22.5 25.75ZM20 17C20 16.337 20.2634 15.7011 20.7322 15.2322C21.2011 14.7634 21.837 14.5 22.5 14.5C23.163 14.5 23.7989 14.7634 24.2678 15.2322C24.7366 15.7011 25 16.337 25 17V22C25 22.663 24.7366 23.2989 24.2678 23.7678C23.7989 24.2366 23.163 24.5 22.5 24.5C21.837 24.5 21.2011 24.2366 20.7322 23.7678C20.2634 23.2989 20 22.663 20 22V17ZM23.125 28.2188V30.75C23.125 30.9158 23.0592 31.0747 22.9419 31.1919C22.8247 31.3092 22.6658 31.375 22.5 31.375C22.3342 31.375 22.1753 31.3092 22.0581 31.1919C21.9408 31.0747 21.875 30.9158 21.875 30.75V28.2188C20.3341 28.062 18.9061 27.3393 17.8671 26.1907C16.8281 25.042 16.2519 23.5489 16.25 22C16.25 21.8342 16.3158 21.6753 16.4331 21.5581C16.5503 21.4408 16.7092 21.375 16.875 21.375C17.0408 21.375 17.1997 21.4408 17.3169 21.5581C17.4342 21.6753 17.5 21.8342 17.5 22C17.5 23.3261 18.0268 24.5979 18.9645 25.5355C19.9021 26.4732 21.1739 27 22.5 27C23.8261 27 25.0979 26.4732 26.0355 25.5355C26.9732 24.5979 27.5 23.3261 27.5 22C27.5 21.8342 27.5658 21.6753 27.6831 21.5581C27.8003 21.4408 27.9592 21.375 28.125 21.375C28.2908 21.375 28.4497 21.4408 28.5669 21.5581C28.6842 21.6753 28.75 21.8342 28.75 22C28.7481 23.5489 28.1719 25.042 27.1329 26.1907C26.0939 27.3393 24.6659 28.062 23.125 28.2188Z" fill="#F9F9F9"/>
</svg>
