<svg width="28" height="28" viewBox="0 0 28 28" fill="none" xmlns="http://www.w3.org/2000/svg">
<path d="M0 14C0 6.26801 6.26801 0 14 0C21.732 0 28 6.26801 28 14C28 21.732 21.732 28 14 28C6.26801 28 0 21.732 0 14Z" fill="white"/>
<path d="M14 17C14.7954 16.9992 15.558 16.6828 16.1204 16.1204C16.6828 15.558 16.9992 14.7954 17 14V10C17 9.20435 16.6839 8.44129 16.1213 7.87868C15.5587 7.31607 14.7956 7 14 7C13.2044 7 12.4413 7.31607 11.8787 7.87868C11.3161 8.44129 11 9.20435 11 10V14C11.0008 14.7954 11.3172 15.558 11.8796 16.1204C12.442 16.6828 13.2046 16.9992 14 17ZM12 10C12 9.46957 12.2107 8.96086 12.5858 8.58579C12.9609 8.21071 13.4696 8 14 8C14.5304 8 15.0391 8.21071 15.4142 8.58579C15.7893 8.96086 16 9.46957 16 10V14C16 14.5304 15.7893 15.0391 15.4142 15.4142C15.0391 15.7893 14.5304 16 14 16C13.4696 16 12.9609 15.7893 12.5858 15.4142C12.2107 15.0391 12 14.5304 12 14V10ZM14.5 18.975V21C14.5 21.1326 14.4473 21.2598 14.3536 21.3536C14.2598 21.4473 14.1326 21.5 14 21.5C13.8674 21.5 13.7402 21.4473 13.6464 21.3536C13.5527 21.2598 13.5 21.1326 13.5 21V18.975C12.2673 18.8496 11.1249 18.2715 10.2937 17.3525C9.46245 16.4336 9.00152 15.2391 9 14C9 13.8674 9.05268 13.7402 9.14645 13.6464C9.24021 13.5527 9.36739 13.5 9.5 13.5C9.63261 13.5 9.75979 13.5527 9.85355 13.6464C9.94732 13.7402 10 13.8674 10 14C10 15.0609 10.4214 16.0783 11.1716 16.8284C11.9217 17.5786 12.9391 18 14 18C15.0609 18 16.0783 17.5786 16.8284 16.8284C17.5786 16.0783 18 15.0609 18 14C18 13.8674 18.0527 13.7402 18.1464 13.6464C18.2402 13.5527 18.3674 13.5 18.5 13.5C18.6326 13.5 18.7598 13.5527 18.8536 13.6464C18.9473 13.7402 19 13.8674 19 14C18.9985 15.2391 18.5375 16.4336 17.7063 17.3525C16.8751 18.2715 15.7327 18.8496 14.5 18.975Z" fill="#0858FA"/>
</svg>
